# Blender 4.2.2 LTS
# www.blender.org
mtllib billboards.mtl
o billboards
v 0.495748 -0.002290 -0.042464
v 0.500000 0.993766 -0.048207
v 0.500000 0.993766 0.048207
v 0.495748 -0.002290 0.042464
v 0.000000 0.993766 -0.048207
v 0.000000 0.993766 0.048207
v 0.495748 0.409973 -0.042464
v 0.495748 0.409973 0.042464
v 0.000000 0.412455 0.048207
v 0.000000 0.412455 -0.048207
v 0.432865 -0.002290 -0.042464
v 0.432865 0.409973 -0.042464
v 0.428613 0.993766 -0.048207
v 0.428613 0.993766 0.048207
v 0.432865 0.409973 0.042464
v 0.432865 -0.002290 0.042464
v 0.500000 0.462095 0.048207
v 0.500000 0.462095 -0.048207
v 0.428613 0.462095 -0.048207
v 0.000000 0.462095 -0.048207
v 0.000000 0.462095 0.048207
v 0.428613 0.462095 0.048207
v 0.513003 0.409973 -0.063588
v 0.513003 0.409973 0.063588
v 0.513003 0.464577 -0.063588
v 0.513003 0.464577 0.063588
v 0.432865 0.409973 -0.063588
v 0.432865 0.464577 -0.063588
v 0.000000 0.464577 -0.063588
v 0.000000 0.409973 -0.063588
v 0.000000 0.464577 0.063588
v 0.000000 0.409973 0.063588
v 0.432865 0.464577 0.063588
v 0.432865 0.409973 0.063588
v -0.495748 -0.002290 0.042464
v -0.500000 0.993766 0.048207
v -0.500000 0.993766 -0.048207
v -0.495748 -0.002290 -0.042464
v -0.495748 0.409973 0.042464
v -0.495748 0.409973 -0.042464
v -0.432865 -0.002290 0.042464
v -0.432865 0.409973 0.042464
v -0.428613 0.993766 0.048207
v -0.428613 0.993766 -0.048207
v -0.432865 0.409973 -0.042464
v -0.432865 -0.002290 -0.042464
v -0.500000 0.462095 -0.048207
v -0.500000 0.462095 0.048207
v -0.428613 0.462095 0.048207
v -0.428613 0.462095 -0.048207
v -0.513003 0.409973 0.063588
v -0.513003 0.409973 -0.063588
v -0.513003 0.464577 0.063588
v -0.513003 0.464577 -0.063588
v -0.432865 0.409973 0.063588
v -0.432865 0.464577 0.063588
v -0.432865 0.464577 -0.063588
v -0.432865 0.409973 -0.063588
vn -0.0000 -0.0000 -1.0000
vn -0.0000 1.0000 -0.0000
vn -0.0000 -0.0000 1.0000
vn -0.0000 -1.0000 -0.0000
vn 1.0000 -0.0000 -0.0000
vn -0.0052 -0.9999 -0.0109
vn -0.0000 -0.9999 -0.0110
vn -0.0000 -0.9999 0.0110
vn -0.0052 -0.9999 0.0109
vn -1.0000 -0.0000 -0.0000
vn -0.1084 0.9918 0.0684
vn -0.1084 0.9918 -0.0684
vn -0.0953 0.9923 -0.0795
vn -0.0953 0.9923 0.0795
vn -0.0028 -0.9984 0.0570
vn -0.0000 0.9872 0.1593
vn -0.1083 0.9918 0.0685
vn -0.0953 0.9923 0.0796
vn -0.0000 -0.9977 0.0678
vn -0.0000 0.9872 -0.1593
vn -0.0028 -0.9984 -0.0570
vn -0.0000 -0.9977 -0.0678
vn -0.1083 0.9918 -0.0685
vn -0.0953 0.9923 -0.0796
vn 0.0052 -0.9999 0.0109
vn 0.0052 -0.9999 -0.0109
vn 0.1084 0.9918 -0.0684
vn 0.1084 0.9918 0.0684
vn 0.0953 0.9923 0.0795
vn 0.0953 0.9923 -0.0795
vn 0.0028 -0.9984 -0.0570
vn 0.1083 0.9918 -0.0685
vn 0.0953 0.9923 -0.0796
vn 0.0028 -0.9984 0.0570
vn 0.1083 0.9918 0.0685
vn 0.0953 0.9923 0.0796
vt 0.565327 0.767891
vt 0.590293 0.767891
vt 0.590293 0.931571
vt 0.565327 0.931571
vt 0.256388 0.045191
vt 0.256388 0.073534
vt 0.218109 0.073534
vt 0.218109 0.045191
vt 0.648978 0.931571
vt 0.624012 0.931571
vt 0.624012 0.767891
vt 0.648978 0.767891
vt 0.624012 0.742925
vt 0.590293 0.742925
vt 0.531608 0.767891
vt 0.531608 0.931571
vt 0.467476 0.006913
vt 0.467476 0.045191
vt 0.256388 0.006913
vt 0.007021 0.073534
vt 0.007021 0.045191
vt 0.467476 0.073534
vt 0.467476 0.243705
vt 0.256388 0.243705
vt 0.218109 0.243705
vt 0.007021 0.243705
vt 0.517007 0.058710
vt 0.519116 0.230575
vt 0.480836 0.230539
vt 0.483290 0.058652
vt 0.547091 0.005241
vt 0.597581 0.005188
vt 0.597607 0.026868
vt 0.547118 0.026919
vt 0.619278 0.026811
vt 0.619401 0.058708
vt 0.597724 0.058741
vt 0.597644 0.230585
vt 0.619326 0.230608
vt 0.525392 0.058725
vt 0.547065 0.058760
vt 0.546985 0.230603
vt 0.525302 0.230581
vt 0.525447 0.026895
vt 0.517050 0.033735
vt 0.483334 0.033682
vt 0.474960 0.026817
vt 0.591472 0.032114
vt 0.553266 0.032146
vt 0.474904 0.058638
vt 0.591536 0.060436
vt 0.591457 0.230578
vt 0.474650 0.230533
vt 0.553250 0.060457
vt 0.553172 0.230610
vt 0.218109 0.442219
vt 0.218109 0.413877
vt 0.256388 0.413877
vt 0.256388 0.442219
vt 0.467476 0.442219
vt 0.467476 0.480498
vt 0.256388 0.480498
vt 0.467476 0.413877
vt 0.007021 0.442219
vt 0.007021 0.413877
vt 0.483124 0.402466
vt 0.516840 0.402453
vt 0.597521 0.455944
vt 0.547011 0.455970
vt 0.546991 0.434288
vt 0.597508 0.434267
vt 0.525289 0.434287
vt 0.525226 0.402448
vt 0.546903 0.402425
vt 0.619241 0.402459
vt 0.597564 0.402423
vt 0.619185 0.434303
vt 0.483151 0.427444
vt 0.516884 0.427436
vt 0.474768 0.434300
vt 0.553134 0.429048
vt 0.591362 0.429036
vt 0.553091 0.400732
vt 0.591378 0.400726
vt 0.474737 0.402466
s 0
usemtl lambert3SG
f 1/1/1 11/2/1 12/3/1 7/4/1
s 1
f 2/5/2 13/6/2 14/7/2 3/8/2
s 0
f 8/9/3 15/10/3 16/11/3 4/12/3
f 4/13/4 16/11/4 11/2/4 1/14/4
f 4/15/5 1/1/5 7/4/5 8/16/5
f 17/17/5 18/18/5 2/5/5 3/19/5
s 1
f 3/8/3 14/7/3 22/20/3 17/21/3
f 18/18/1 19/22/1 13/6/1 2/5/1
f 13/6/1 19/22/1 20/23/1 5/24/1
f 14/7/2 13/6/2 5/24/2 6/25/2
f 21/26/3 22/20/3 14/7/3 6/25/3
f 15/27/6 9/28/7 10/29/8 12/30/9
s 0
f 12/3/10 11/2/10 16/11/10 15/10/10
f 24/31/5 23/32/5 25/33/5 26/34/5
s 1
f 23/35/1 27/36/1 28/37/1 25/33/1
f 29/38/1 28/37/1 27/36/1 30/39/1
f 34/40/3 33/41/3 31/42/3 32/43/3
f 26/34/3 33/41/3 34/40/3 24/44/3
f 8/45/4 7/46/4 23/47/4 24/44/4
f 18/48/11 17/49/12 26/34/13 25/33/14
f 7/46/4 12/30/9 27/50/15 23/47/4
f 19/51/16 18/48/17 25/33/18 28/37/16
f 20/52/16 19/51/16 28/37/16 29/38/16
f 12/30/9 10/29/8 30/53/19 27/50/15
f 22/54/20 21/55/20 31/42/20 33/41/20
f 9/28/7 15/27/6 34/40/21 32/43/22
f 17/49/23 22/54/20 33/41/20 26/34/24
f 15/27/6 8/45/4 24/44/4 34/40/21
s 0
f 35/1/3 41/2/3 42/3/3 39/4/3
s 1
f 36/56/2 43/57/2 44/58/2 37/59/2
s 0
f 40/9/1 45/10/1 46/11/1 38/12/1
f 38/13/4 46/11/4 41/2/4 35/14/4
f 38/15/10 35/1/10 39/4/10 40/16/10
f 47/60/10 48/61/10 36/62/10 37/59/10
s 1
f 37/59/1 44/58/1 50/63/1 47/60/1
f 48/64/3 49/65/3 43/57/3 36/56/3
f 43/57/3 49/65/3 21/26/3 6/25/3
f 44/58/2 43/57/2 6/25/2 5/24/2
f 20/23/1 50/63/1 44/58/1 5/24/1
f 45/66/25 10/29/8 9/28/7 42/67/26
s 0
f 42/3/5 41/2/5 46/11/5 45/10/5
f 52/68/10 51/69/10 53/70/10 54/71/10
s 1
f 51/72/3 55/73/3 56/74/3 53/70/3
f 31/42/3 56/74/3 55/73/3 32/43/3
f 58/75/1 57/76/1 29/38/1 30/39/1
f 54/71/1 57/76/1 58/75/1 52/77/1
f 40/78/4 39/79/4 51/72/4 52/80/4
f 48/81/27 47/82/28 54/71/29 53/70/30
f 39/79/4 42/67/26 55/73/31 51/72/4
f 49/83/20 48/81/32 53/70/33 56/74/20
f 21/55/20 49/83/20 56/74/20 31/42/20
f 42/67/26 9/28/7 32/43/22 55/73/31
f 50/84/16 20/52/16 29/38/16 57/76/16
f 10/29/8 45/66/25 58/85/34 30/53/19
f 47/82/35 50/84/16 57/76/16 54/71/36
f 45/66/25 40/78/4 52/80/4 58/85/34
