# This file uses centimeters as units for non-parametric coordinates.

mtllib billboards.mtl
g default
v 0.495748 0.277710 -0.042464
v 0.500000 1.273766 -0.048207
v 0.500000 1.273766 0.048207
v 0.495748 0.277710 0.042464
v 0.000000 1.273766 -0.048207
v 0.000000 1.273766 0.048207
v 0.495748 0.689973 -0.042464
v 0.495748 0.689973 0.042464
v 0.000000 0.692455 0.048207
v 0.000000 0.692455 -0.048207
v 0.432865 0.277710 -0.042464
v 0.432865 0.689973 -0.042464
v 0.428613 1.273766 -0.048207
v 0.428613 1.273766 0.048207
v 0.432865 0.689973 0.042464
v 0.432865 0.277710 0.042464
v 0.500000 0.742095 0.048207
v 0.500000 0.742095 -0.048207
v 0.428613 0.742095 -0.048207
v 0.000000 0.742095 -0.048207
v 0.000000 0.742095 0.048207
v 0.428613 0.742095 0.048207
v 0.513003 0.689973 -0.063588
v 0.513003 0.689973 0.063588
v 0.513003 0.744577 -0.063588
v 0.513003 0.744577 0.063588
v 0.432865 0.689973 -0.063588
v 0.432865 0.744577 -0.063588
v 0.000000 0.744577 -0.063588
v 0.000000 0.689973 -0.063588
v 0.000000 0.744577 0.063588
v 0.000000 0.689973 0.063588
v 0.432865 0.744577 0.063588
v 0.432865 0.689973 0.063588
v -0.495748 0.277710 0.042464
v -0.500000 1.273766 0.048207
v -0.500000 1.273766 -0.048207
v -0.495748 0.277710 -0.042464
v -0.495748 0.689973 0.042464
v -0.495748 0.689973 -0.042464
v -0.432865 0.277710 0.042464
v -0.432865 0.689973 0.042464
v -0.428613 1.273766 0.048207
v -0.428613 1.273766 -0.048207
v -0.432865 0.689973 -0.042464
v -0.432865 0.277710 -0.042464
v -0.500000 0.742095 -0.048207
v -0.500000 0.742095 0.048207
v -0.428613 0.742095 0.048207
v -0.428613 0.742095 -0.048207
v -0.513003 0.689973 0.063588
v -0.513003 0.689973 -0.063588
v -0.513003 0.744577 0.063588
v -0.513003 0.744577 -0.063588
v -0.432865 0.689973 0.063588
v -0.432865 0.744577 0.063588
v -0.432865 0.744577 -0.063588
v -0.432865 0.689973 -0.063588
vt 0.531608 0.767891
vt 0.565327 0.767891
vt 0.565327 0.931571
vt 0.531608 0.931571
vt 0.467476 0.006913
vt 0.467476 0.045191
vt 0.256388 0.045191
vt 0.256388 0.006913
vt 0.590293 0.931571
vt 0.590293 0.767891
vt 0.624012 0.767891
vt 0.624012 0.931571
vt 0.547091 0.005241
vt 0.597581 0.005188
vt 0.597607 0.026868
vt 0.547118 0.026919
vt 0.531608 0.767891
vt 0.565327 0.767891
vt 0.565327 0.931571
vt 0.531608 0.931571
vt 0.467476 0.442219
vt 0.467476 0.480498
vt 0.256388 0.480498
vt 0.256388 0.442219
vt 0.590293 0.931571
vt 0.590293 0.767891
vt 0.624012 0.767891
vt 0.624012 0.931571
vt 0.597521 0.455944
vt 0.547011 0.455970
vt 0.546991 0.434288
vt 0.597508 0.434267
vt 0.256388 0.073534
vt 0.218109 0.073534
vt 0.218109 0.045191
vt 0.256388 0.243705
vt 0.218109 0.243705
vt 0.256388 0.413877
vt 0.218109 0.413877
vt 0.218109 0.442219
vt 0.624012 0.742925
vt 0.590293 0.742925
vt 0.517007 0.058710
vt 0.519116 0.230575
vt 0.480836 0.230539
vt 0.483290 0.058652
vt 0.525392 0.058725
vt 0.525302 0.230581
vt 0.483124 0.402466
vt 0.516840 0.402453
vt 0.474650 0.230533
vt 0.474904 0.058638
vt 0.517050 0.033735
vt 0.525447 0.026895
vt 0.525226 0.402448
vt 0.474737 0.402466
vt 0.483334 0.033682
vt 0.474960 0.026817
vt 0.516884 0.427436
vt 0.525289 0.434287
vt 0.483151 0.427444
vt 0.474768 0.434300
vt 0.591472 0.032114
vt 0.553266 0.032146
vt 0.553250 0.060457
vt 0.547065 0.058760
vt 0.591536 0.060436
vt 0.597724 0.058741
vt 0.553172 0.230610
vt 0.546985 0.230603
vt 0.591457 0.230578
vt 0.597644 0.230585
vt 0.553091 0.400732
vt 0.546903 0.402425
vt 0.591378 0.400726
vt 0.597564 0.402423
vt 0.553134 0.429048
vt 0.591362 0.429036
vt 0.624012 0.742925
vt 0.590293 0.742925
vt 0.648978 0.931571
vt 0.648978 0.767891
vt 0.007021 0.073534
vt 0.007021 0.045191
vt 0.007021 0.243705
vt 0.007021 0.413877
vt 0.007021 0.442219
vt 0.467476 0.073534
vt 0.467476 0.243705
vt 0.467476 0.413877
vt 0.619278 0.026811
vt 0.619401 0.058708
vt 0.619326 0.230608
vt 0.619241 0.402459
vt 0.619185 0.434303
vt 0.648978 0.931571
vt 0.648978 0.767891
vn 0.000000 0.000000 -1.000000
vn 0.000000 0.000000 -1.000000
vn 0.000000 0.000000 -1.000000
vn 0.000000 0.000000 -1.000000
vn 0.000000 1.000000 0.000000
vn 0.000000 1.000000 0.000000
vn 0.000000 1.000000 0.000000
vn 0.000000 1.000000 0.000000
vn 0.000000 0.000000 1.000000
vn 0.000000 0.000000 1.000000
vn 0.000000 0.000000 1.000000
vn 0.000000 0.000000 1.000000
vn 0.000000 -1.000000 0.000000
vn 0.000000 -1.000000 0.000000
vn 0.000000 -1.000000 0.000000
vn 0.000000 -1.000000 0.000000
vn 1.000000 0.000000 0.000000
vn 1.000000 0.000000 0.000000
vn 1.000000 0.000000 0.000000
vn 1.000000 0.000000 0.000000
vn 1.000000 0.000000 0.000000
vn 1.000000 0.000000 0.000000
vn 1.000000 0.000000 0.000000
vn 1.000000 0.000000 0.000000
vn 0.000000 0.000000 1.000000
vn 0.000000 0.000000 1.000000
vn 0.000000 0.000000 1.000000
vn 0.000000 0.000000 1.000000
vn 0.000000 0.000000 -1.000000
vn 0.000000 0.000000 -1.000000
vn 0.000000 0.000000 -1.000000
vn 0.000000 0.000000 -1.000000
vn 0.000000 0.000000 -1.000000
vn 0.000000 0.000000 -1.000000
vn 0.000000 1.000000 0.000000
vn 0.000000 1.000000 0.000000
vn 0.000000 0.000000 1.000000
vn 0.000000 0.000000 1.000000
vn -0.005169 -0.999927 -0.010886
vn -0.005323 -0.999919 -0.011547
vn -0.005323 -0.999919 0.011547
vn -0.005169 -0.999927 0.010886
vn -1.000000 0.000000 0.000000
vn -1.000000 0.000000 0.000000
vn -1.000000 0.000000 0.000000
vn -1.000000 0.000000 0.000000
vn 1.000000 0.000000 0.000000
vn 1.000000 0.000000 0.000000
vn 1.000000 0.000000 0.000000
vn 1.000000 0.000000 0.000000
vn 0.000000 0.000000 -1.000000
vn 0.000000 0.000000 -1.000000
vn 0.000000 0.000000 -1.000000
vn 0.000000 0.000000 -1.000000
vn 0.000000 0.000000 -1.000000
vn 0.000000 0.000000 -1.000000
vn -0.000000 0.000000 1.000000
vn -0.000000 0.000000 1.000000
vn -0.000000 0.000000 1.000000
vn -0.000000 0.000000 1.000000
vn 0.000000 0.000000 1.000000
vn 0.000000 0.000000 1.000000
vn 0.000000 -1.000000 0.000001
vn 0.000000 -1.000000 -0.000001
vn 0.000000 -1.000000 -0.000001
vn 0.000000 -1.000000 0.000001
vn -0.108339 0.991755 0.068446
vn -0.108340 0.991755 -0.068444
vn -0.095298 0.992265 -0.079550
vn -0.095298 0.992265 0.079553
vn -0.002781 -0.998371 0.056985
vn 0.000000 0.987230 0.159301
vn 0.000000 0.987230 0.159301
vn 0.000000 0.987230 0.159301
vn 0.000000 0.987230 0.159301
vn -0.003310 -0.997691 0.067834
vn 0.000000 0.987230 -0.159302
vn 0.000000 0.987230 -0.159302
vn 0.000000 0.987230 -0.159302
vn 0.000000 0.987230 -0.159301
vn -0.002781 -0.998371 -0.056985
vn -0.003310 -0.997691 -0.067834
vn 0.000000 0.000000 1.000000
vn 0.000000 0.000000 1.000000
vn 0.000000 0.000000 1.000000
vn 0.000000 0.000000 1.000000
vn 0.000000 1.000000 0.000000
vn 0.000000 1.000000 0.000000
vn 0.000000 1.000000 0.000000
vn 0.000000 1.000000 0.000000
vn 0.000000 0.000000 -1.000000
vn 0.000000 0.000000 -1.000000
vn 0.000000 0.000000 -1.000000
vn 0.000000 0.000000 -1.000000
vn 0.000000 -1.000000 0.000000
vn 0.000000 -1.000000 0.000000
vn 0.000000 -1.000000 0.000000
vn 0.000000 -1.000000 0.000000
vn -1.000000 0.000000 0.000000
vn -1.000000 0.000000 0.000000
vn -1.000000 0.000000 0.000000
vn -1.000000 0.000000 0.000000
vn -1.000000 0.000000 0.000000
vn -1.000000 0.000000 0.000000
vn -1.000000 0.000000 0.000000
vn -1.000000 0.000000 0.000000
vn 0.000000 0.000000 -1.000000
vn 0.000000 0.000000 -1.000000
vn 0.000000 0.000000 -1.000000
vn 0.000000 0.000000 -1.000000
vn 0.000000 0.000000 1.000000
vn -0.000000 0.000000 1.000000
vn -0.000000 0.000000 1.000000
vn 0.000000 0.000000 1.000000
vn -0.000000 0.000000 1.000000
vn -0.000000 0.000000 1.000000
vn 0.000000 1.000000 0.000000
vn 0.000000 1.000000 0.000000
vn 0.000000 0.000000 -1.000000
vn 0.000000 0.000000 -1.000000
vn 0.005169 -0.999927 0.010886
vn 0.005323 -0.999919 0.011547
vn 0.005323 -0.999919 -0.011547
vn 0.005169 -0.999927 -0.010886
vn 1.000000 0.000000 0.000000
vn 1.000000 0.000000 0.000000
vn 1.000000 0.000000 0.000000
vn 1.000000 0.000000 0.000000
vn -1.000000 0.000000 0.000000
vn -1.000000 0.000000 0.000000
vn -1.000000 0.000000 0.000000
vn -1.000000 0.000000 0.000000
vn 0.000000 0.000000 1.000000
vn 0.000000 0.000000 1.000000
vn 0.000000 0.000000 1.000000
vn 0.000000 0.000000 1.000000
vn 0.000000 0.000000 1.000000
vn 0.000000 0.000000 1.000000
vn 0.000000 0.000000 -1.000000
vn 0.000000 0.000000 -1.000000
vn 0.000000 0.000000 -1.000000
vn 0.000000 0.000000 -1.000000
vn 0.000000 0.000000 -1.000000
vn 0.000000 0.000000 -1.000000
vn 0.000000 -1.000000 -0.000001
vn 0.000000 -1.000000 0.000001
vn 0.000000 -1.000000 0.000001
vn 0.000000 -1.000000 -0.000001
vn 0.108339 0.991755 -0.068446
vn 0.108339 0.991755 0.068444
vn 0.095298 0.992265 0.079550
vn 0.095298 0.992265 -0.079553
vn 0.002781 -0.998371 -0.056985
vn 0.000000 0.987230 -0.159301
vn 0.000000 0.987230 -0.159301
vn 0.000000 0.987230 -0.159301
vn 0.000000 0.987230 -0.159301
vn 0.003310 -0.997691 -0.067834
vn -0.000000 0.987230 0.159302
vn -0.000000 0.987230 0.159302
vn -0.000000 0.987230 0.159302
vn -0.000000 0.987230 0.159301
vn 0.002781 -0.998371 0.056985
vn 0.003310 -0.997691 0.067834
s off
g billboard
usemtl lambert3SG
f 1/2/1 11/10/2 12/9/3 7/3/4
s 1
f 2/7/5 13/33/6 14/34/7 3/35/8
s off
f 8/81/9 15/12/10 16/11/11 4/82/12
f 4/41/13 16/11/14 11/10/15 1/42/16
f 4/1/17 1/2/18 7/3/19 8/4/20
f 17/5/21 18/6/22 2/7/23 3/8/24
s 2
f 3/35/25 14/34/26 22/83/27 17/84/28
s 3
f 18/6/29 19/88/30 13/33/31 2/7/32
f 13/33/31 19/88/30 20/89/33 5/36/34
s 1
f 14/34/7 13/33/6 5/36/35 6/37/36
s 2
f 21/85/37 22/83/27 14/34/26 6/37/38
s 4
f 15/43/39 9/44/40 10/45/41 12/46/42
s off
f 12/9/43 11/10/44 16/11/45 15/12/46
f 24/13/47 23/14/48 25/15/49 26/16/50
s 5
f 23/91/51 27/92/52 28/68/53 25/15/54
f 29/72/55 28/68/53 27/92/52 30/93/56
s 6
f 34/47/57 33/66/58 31/70/59 32/48/60
f 26/16/61 33/66/58 34/47/57 24/54/62
s 4
f 8/53/63 7/57/64 23/58/65 24/54/66
s 8
f 18/63/67 17/64/68 26/16/69 25/15/70
s 4
f 7/57/64 12/46/42 27/52/71 23/58/65
s 8
f 19/67/72 18/63/67 25/15/70 28/68/73
f 20/71/74 19/67/72 28/68/73 29/72/75
s 4
f 12/46/42 10/45/41 30/51/76 27/52/71
s 8
f 22/65/77 21/69/78 31/70/79 33/66/80
s 4
f 9/44/40 15/43/39 34/47/81 32/48/82
s 8
f 17/64/68 22/65/77 33/66/80 26/16/69
s 4
f 15/43/39 8/53/63 24/54/66 34/47/81
s off
f 35/18/83 41/26/84 42/25/85 39/19/86
s 9
f 36/40/87 43/39/88 44/38/89 37/24/90
s off
f 40/96/91 45/28/92 46/27/93 38/97/94
f 38/79/95 46/27/96 41/26/97 35/80/98
f 38/17/99 35/18/100 39/19/101 40/20/102
f 47/21/103 48/22/104 36/23/105 37/24/106
s 10
f 37/24/107 44/38/108 50/90/109 47/21/110
s 11
f 48/87/111 49/86/112 43/39/113 36/40/114
f 43/39/113 49/86/112 21/85/115 6/37/116
s 9
f 44/38/89 43/39/88 6/37/117 5/36/118
s 10
f 20/89/119 50/90/109 44/38/108 5/36/120
s 12
f 45/49/121 10/45/122 9/44/123 42/50/124
s off
f 42/25/125 41/26/126 46/27/127 45/28/128
f 52/29/129 51/30/130 53/31/131 54/32/132
s 13
f 51/60/133 55/55/134 56/74/135 53/31/136
f 31/70/137 56/74/135 55/55/134 32/48/138
s 14
f 58/94/139 57/76/140 29/72/141 30/93/142
f 54/32/143 57/76/140 58/94/139 52/95/144
s 12
f 40/61/145 39/59/146 51/60/147 52/62/148
s 16
f 48/77/149 47/78/150 54/32/151 53/31/152
s 12
f 39/59/146 42/50/124 55/55/153 51/60/147
s 16
f 49/73/154 48/77/149 53/31/152 56/74/155
f 21/69/156 49/73/154 56/74/155 31/70/157
s 12
f 42/50/124 9/44/123 32/48/158 55/55/153
s 16
f 50/75/159 20/71/160 29/72/161 57/76/162
s 12
f 10/45/122 45/49/121 58/56/163 30/51/164
s 16
f 47/78/150 50/75/159 57/76/162 54/32/151
s 12
f 45/49/121 40/61/145 52/62/148 58/56/163
