# This file uses centimeters as units for non-parametric coordinates.

mtllib flaggonly.mtl
g default
v 0.709680 1.131875 -0.027296
v 0.678161 1.131875 -0.027296
v 0.678161 1.131875 0.027296
v 0.709680 1.131875 0.027296
v 0.725439 1.131875 0.000000
v 0.693921 1.131875 0.000000
v 0.709680 0.023423 -0.027296
v 0.725439 0.023423 0.000000
v 0.709680 0.023423 0.027296
v 0.678161 0.023423 0.027296
v 0.678161 0.023423 -0.027296
v 0.722025 -0.000000 -0.048677
v 0.665817 -0.000000 -0.048677
v 0.665817 0.023423 -0.048677
v 0.722025 0.023423 -0.048677
v 0.665817 -0.000000 0.048677
v 0.665817 0.023423 0.048677
v 0.722025 -0.000000 0.048677
v 0.722025 0.023423 0.048677
v 0.750129 -0.000000 0.000000
v 0.750129 0.023423 0.000000
v 0.709680 0.743327 -0.027296
v 0.725439 0.743327 0.000000
v 0.709680 0.743327 0.027296
v 0.678161 0.743327 0.027296
v 0.678161 0.743327 -0.027296
v 0.709680 1.078870 -0.027296
v 0.725439 1.078870 0.000000
v 0.709680 1.078870 0.027296
v 0.678161 1.078870 0.027296
v 0.678161 1.078870 -0.027296
v 0.678161 1.131875 0.008188
v 0.678161 1.131875 -0.008188
v 0.678161 1.078870 0.008188
v 0.678161 1.078870 -0.008188
v 0.678161 0.743327 0.008188
v 0.678161 0.743327 -0.008188
v 0.678161 0.023423 0.008188
v 0.678161 0.023423 -0.008188
v 0.665817 0.023423 0.008188
v 0.665817 0.023423 -0.008188
v 0.665817 -0.000000 0.008188
v 0.665817 -0.000000 -0.008188
v -0.678161 1.078870 -0.008188
v -0.678161 1.078870 0.008188
v -0.678161 0.743327 -0.008188
v -0.678161 0.743327 0.008188
v -0.709680 1.131875 0.027296
v -0.678161 1.131875 0.027296
v -0.678161 1.131875 -0.027296
v -0.709680 1.131875 -0.027296
v -0.725439 1.131875 0.000000
v -0.693921 1.131875 0.000000
v -0.709680 0.023423 0.027296
v -0.725439 0.023423 0.000000
v -0.709680 0.023423 -0.027296
v -0.678161 0.023423 -0.027296
v -0.678161 0.023423 0.027296
v -0.722025 -0.000000 0.048677
v -0.665817 -0.000000 0.048677
v -0.665817 0.023423 0.048677
v -0.722025 0.023423 0.048677
v -0.665817 -0.000000 -0.048677
v -0.665817 0.023423 -0.048677
v -0.722025 -0.000000 -0.048677
v -0.722025 0.023423 -0.048677
v -0.750129 -0.000000 0.000000
v -0.750129 0.023423 0.000000
vt 0.988720 0.000119
vt 0.992129 0.000079
vt 0.993038 0.077952
vt 0.989629 0.077992
vt 0.993462 0.114248
vt 0.990053 0.114288
vt 0.985310 0.000159
vt 0.986219 0.078031
vt 0.993529 0.119981
vt 0.990120 0.120021
vt 0.986643 0.114327
vt 0.986710 0.120061
vt 0.981234 0.120125
vt 0.979462 0.120145
vt 0.979395 0.114412
vt 0.981167 0.114391
vt 0.977395 0.120168
vt 0.977328 0.114436
vt 0.983301 0.120103
vt 0.983234 0.114367
vt 0.978972 0.078116
vt 0.976905 0.078140
vt 0.980743 0.078095
vt 0.982810 0.078071
vt 0.978063 0.000243
vt 0.975996 0.000267
vt 0.979834 0.000223
vt 0.981901 0.000199
vt 0.563475 0.117747
vt 0.563534 0.119589
vt 0.560988 0.119692
vt 0.560917 0.117781
vt 0.563919 0.124214
vt 0.561323 0.124331
vt 0.560999 0.113144
vt 0.563579 0.113108
vt 0.977431 0.123575
vt 0.980366 0.121840
vt 0.980401 0.125249
vt 0.983336 0.123514
vt 0.565012 0.121621
vt 0.568384 0.121293
vt 0.569717 0.123269
vt 0.570097 0.118420
vt 0.572999 0.118337
vt 0.564900 0.119527
vt 0.568242 0.115729
vt 0.569411 0.113662
vt 0.564843 0.117727
vt 0.564815 0.115649
vt 0.613488 0.043516
vt 0.615114 0.044218
vt 0.556934 0.178915
vt 0.555308 0.178212
vt 0.648437 0.058611
vt 0.650063 0.059314
vt 0.591883 0.194010
vt 0.590257 0.193308
vt 0.571114 0.125219
vt 0.564627 0.126893
vt 0.575014 0.119957
vt 0.564083 0.110561
vt 0.570512 0.111529
vt 0.575041 0.116482
vt 0.995539 0.000040
vt 0.996448 0.077912
vt 0.996871 0.114208
vt 0.996938 0.119941
vt 0.683386 0.073707
vt 0.625206 0.208404
vt 0.044400 0.113193
vt 0.046950 0.113140
vt 0.047230 0.123979
vt 0.044680 0.124060
vt 0.035906 0.124851
vt 0.033655 0.118949
vt 0.036047 0.118804
vt 0.038350 0.124027
vt 0.035472 0.112741
vt 0.038099 0.113520
vt 0.053927 0.055662
vt 0.057337 0.055663
vt 0.057302 0.175574
vt 0.053892 0.175573
vt 0.050518 0.055661
vt 0.050483 0.175572
vt 0.066617 0.175576
vt 0.060711 0.175575
vt 0.060746 0.055664
vt 0.066652 0.055666
vt 0.060710 0.178984
vt 0.063664 0.177280
vt 0.063663 0.180690
vt 0.066616 0.178986
vt 0.043151 0.115618
vt 0.039740 0.115750
vt 0.038423 0.118744
vt 0.043309 0.121711
vt 0.039908 0.121707
vt 0.037942 0.110990
vt 0.044192 0.110635
vt 0.044588 0.126626
vt 0.038312 0.126561
vt 0.070062 0.055667
vt 0.070027 0.175577
vn 0.000000 0.000000 -1.000000
vn 0.000000 0.000000 -1.000000
vn 0.000000 0.000000 -1.000000
vn 0.000000 0.000000 -1.000000
vn -0.000000 0.000000 1.000000
vn -0.000000 0.000000 1.000000
vn -0.000000 0.000000 1.000000
vn -0.000000 0.000000 1.000000
vn 0.866025 0.000000 0.500002
vn 0.866025 0.000000 0.500002
vn 0.866025 0.000000 0.500002
vn 0.866025 0.000000 0.500002
vn 0.866025 0.000000 -0.500002
vn 0.866025 0.000000 -0.500002
vn 0.866025 0.000000 -0.500002
vn 0.866025 0.000000 -0.500002
vn 0.000000 1.000000 0.000002
vn 0.000000 1.000000 0.000004
vn 0.000000 1.000000 0.000000
vn 0.000000 1.000000 0.000000
vn 0.000000 1.000000 -0.000004
vn 0.000000 1.000000 -0.000002
vn 0.000000 1.000000 0.000000
vn 0.866029 0.000000 -0.499994
vn 0.866029 0.000000 -0.499994
vn 0.866029 0.000000 -0.499994
vn 0.866029 0.000000 -0.499994
vn 0.866029 0.000000 0.499993
vn 0.866029 0.000000 0.499993
vn 0.866029 0.000000 0.499993
vn 0.866029 0.000000 0.499993
vn -0.000000 0.000000 1.000000
vn -0.000000 0.000000 1.000000
vn -0.000000 -0.000000 1.000000
vn -0.000000 -0.000000 1.000000
vn 0.000000 0.000000 -1.000000
vn 0.000000 0.000000 -1.000000
vn 0.000000 -0.000000 -1.000000
vn 0.000000 -0.000000 -1.000000
vn 0.000000 1.000000 0.000000
vn 0.000000 1.000000 -0.000000
vn 0.000000 1.000000 -0.000000
vn 0.000000 1.000000 0.000000
vn 0.000000 1.000000 0.000000
vn 0.000000 1.000000 0.000000
vn 0.000000 1.000000 0.000000
vn 0.000000 1.000000 0.000000
vn 0.000000 1.000000 -0.000000
vn 0.000000 1.000000 -0.000000
vn 0.866029 0.000000 -0.499994
vn 0.866029 0.000000 -0.499994
vn 0.866029 0.000000 0.499993
vn 0.866029 0.000000 0.499993
vn -0.000000 -0.000000 1.000000
vn -0.000000 -0.000000 1.000000
vn 0.000000 -0.000000 -1.000000
vn 0.000000 -0.000000 -1.000000
vn 0.866029 0.000000 -0.499994
vn 0.866029 0.000000 -0.499994
vn 0.866029 0.000000 0.499994
vn 0.866029 0.000000 0.499994
vn -0.000000 0.000000 1.000000
vn -0.000000 0.000000 1.000000
vn 0.000000 0.000000 -1.000000
vn 0.000000 0.000000 -1.000000
vn -1.000000 0.000000 0.000000
vn -1.000000 0.000000 0.000000
vn -1.000000 0.000000 0.000000
vn -1.000000 0.000000 0.000000
vn -1.000000 0.000000 0.000000
vn -1.000000 0.000000 0.000000
vn -1.000000 0.000000 0.000000
vn -1.000000 0.000000 0.000000
vn 0.000000 1.000000 0.000000
vn 0.000000 1.000000 0.000000
vn 0.000000 1.000000 0.000000
vn 0.000000 1.000000 0.000000
vn -1.000000 0.000000 0.000000
vn -1.000000 -0.000001 0.000000
vn -1.000000 -0.000001 0.000000
vn -1.000000 0.000000 0.000000
vn -1.000000 0.000000 0.000000
vn -1.000000 0.000000 0.000000
vn -1.000000 0.000000 0.000000
vn -1.000000 0.000000 0.000000
vn -1.000000 0.000000 0.000000
vn -1.000000 0.000000 0.000000
vn -1.000000 0.000000 0.000000
vn -1.000000 0.000000 0.000000
vn -1.000000 0.000000 0.000000
vn -1.000000 0.000000 0.000000
vn -1.000000 -0.000002 0.000000
vn -1.000000 -0.000002 0.000000
vn 0.000000 1.000000 0.000000
vn 0.000000 1.000000 0.000000
vn 0.000000 1.000000 0.000000
vn 0.000000 1.000000 0.000000
vn 0.000000 0.000000 -1.000000
vn 0.000000 0.000000 -1.000000
vn 0.000000 0.000000 -1.000000
vn 0.000000 0.000000 -1.000000
vn 0.000000 -1.000000 0.000000
vn 0.000000 -1.000000 0.000000
vn 0.000000 -1.000000 0.000000
vn 0.000000 -1.000000 0.000000
vn 0.000000 0.000000 1.000000
vn 0.000000 0.000000 1.000000
vn 0.000000 0.000000 1.000000
vn 0.000000 0.000000 1.000000
vn -0.000000 0.000000 1.000000
vn -0.000000 0.000000 1.000000
vn -0.000000 0.000000 1.000000
vn -0.000000 0.000000 1.000000
vn 1.000000 0.000000 0.000000
vn 1.000000 0.000000 0.000000
vn 1.000000 0.000000 0.000000
vn 1.000000 0.000000 0.000000
vn 0.000000 0.000000 -1.000000
vn 0.000000 0.000000 -1.000000
vn 0.000000 0.000000 -1.000000
vn 0.000000 0.000000 -1.000000
vn -0.866026 0.000000 -0.499999
vn -0.866026 0.000000 -0.499999
vn -0.866026 0.000000 -0.499999
vn -0.866026 0.000000 -0.499999
vn -0.866026 0.000000 0.499999
vn -0.866026 0.000000 0.499999
vn -0.866026 0.000000 0.499999
vn -0.866026 0.000000 0.499999
vn 0.000000 1.000000 -0.000002
vn 0.000000 1.000000 -0.000003
vn 0.000000 1.000000 -0.000001
vn 0.000000 1.000000 0.000003
vn 0.000000 1.000000 -0.000000
vn 0.000000 1.000000 -0.000002
vn -0.866027 0.000000 0.499998
vn -0.866027 0.000000 0.499998
vn -0.866027 0.000000 0.499998
vn -0.866027 0.000000 0.499998
vn -0.866027 0.000000 -0.499998
vn -0.866027 0.000000 -0.499998
vn -0.866027 0.000000 -0.499998
vn -0.866027 0.000000 -0.499998
vn 0.000000 -0.000000 -1.000000
vn 0.000000 -0.000000 -1.000000
vn 0.000000 -0.000000 -1.000000
vn 0.000000 -0.000000 -1.000000
vn 1.000000 0.000000 0.000000
vn 1.000000 0.000000 0.000000
vn 1.000000 0.000000 0.000000
vn 1.000000 0.000000 0.000000
vn -0.000000 -0.000000 1.000000
vn -0.000000 -0.000000 1.000000
vn -0.000000 -0.000000 1.000000
vn -0.000000 -0.000000 1.000000
vn 0.000000 1.000000 0.000000
vn 0.000000 1.000000 0.000001
vn 0.000000 1.000000 0.000001
vn 0.000000 1.000000 0.000000
vn 0.000000 1.000000 -0.000000
vn 0.000000 1.000000 -0.000000
vn 0.000000 1.000000 -0.000001
vn 0.000000 1.000000 -0.000001
vn 0.000000 1.000000 0.000000
vn 0.000000 1.000000 0.000000
vn 0.000000 1.000000 0.000000
s off
g flagg uv_done_textures_needed og
usemtl lambert3SG
f 12/59/1 13/60/2 14/33/3 15/43/4
f 16/62/5 18/63/6 19/48/7 17/36/8
f 18/63/9 20/64/10 21/45/11 19/48/12
f 20/61/13 12/59/14 15/43/15 21/45/16
s 1
f 1/37/17 2/17/18 6/38/19
f 6/38/19 32/13/20 3/19/21
f 3/19/21 4/40/22 6/38/19
f 4/40/22 5/39/23 6/38/19
f 5/39/23 1/37/17 6/38/19
s 3
f 8/1/24 7/2/25 22/3/26 23/4/27
s 4
f 9/7/28 8/1/29 23/4/30 24/8/31
s 5
f 10/28/32 9/7/33 24/8/34 25/24/35
s 6
f 7/2/36 11/65/37 26/66/38 22/3/39
s 7
f 11/41/40 7/42/41 15/43/42 14/33/43
f 9/47/44 10/50/45 17/36/46 19/48/47
f 8/44/48 9/47/44 19/48/47 21/45/49
f 7/42/41 8/44/48 21/45/49 15/43/42
s 3
f 23/4/27 22/3/26 27/5/50 28/6/51
s 4
f 24/8/31 23/4/30 28/6/52 29/11/53
s 5
f 25/24/35 24/8/34 29/11/54 30/20/55
s 6
f 22/3/39 26/66/38 31/67/56 27/5/57
s 3
f 28/6/51 27/5/50 1/9/58 5/10/59
s 4
f 29/11/53 28/6/52 5/10/60 4/12/61
s 5
f 30/20/55 29/11/54 4/12/62 3/19/63
s 6
f 27/5/57 31/67/56 2/68/64 1/9/65
s 9
f 32/13/66 33/14/67 35/15/68 34/16/69
f 36/23/70 37/21/71 39/25/72 38/27/73
s 7
f 38/49/74 39/46/75 41/30/76 40/29/77
s 11
f 40/29/78 41/30/79 43/31/80 42/32/81
f 40/29/78 42/32/81 16/35/82 17/36/83
s 9
f 25/24/84 36/23/70 38/27/73 10/28/85
s 7
f 38/49/74 40/29/77 17/36/46 10/50/45
s 9
f 30/20/86 34/16/69 36/23/70 25/24/84
f 3/19/87 32/13/66 34/16/69 30/20/86
f 35/15/68 33/14/67 2/17/88 31/18/89
f 37/21/71 35/15/68 31/18/89 26/22/90
f 39/25/72 37/21/71 26/22/90 11/26/91
s 7
f 14/33/43 41/30/76 39/46/75 11/41/40
s 11
f 14/33/92 13/34/93 43/31/80 41/30/79
s off
f 34/51/94 35/52/95 44/53/96 45/54/97
f 35/52/98 37/55/99 46/58/100 44/53/101
f 37/55/102 36/56/103 47/57/104 46/58/105
f 36/56/106 34/69/107 45/70/108 47/57/109
f 59/100/110 60/101/111 61/71/112 62/80/113
f 61/71/114 60/72/115 63/73/116 64/74/117
f 63/102/118 65/103/119 66/78/120 64/74/121
f 65/75/122 67/76/123 68/77/124 66/78/125
f 67/76/126 59/79/127 62/80/128 68/77/129
s 12
f 48/91/130 49/88/131 53/92/132
f 53/92/132 49/88/131 50/87/133
f 50/87/133 51/94/134 53/92/132
f 51/94/134 52/93/135 53/92/132
f 52/93/135 48/91/130 53/92/132
s off
f 55/81/136 54/82/137 48/83/138 52/84/139
f 56/85/140 55/81/141 52/84/142 51/86/143
f 57/90/144 56/104/145 51/105/146 50/87/147
f 50/87/148 49/88/149 58/89/150 57/90/151
f 54/82/152 58/89/153 49/88/154 48/83/155
s 13
f 58/95/156 54/96/157 62/80/158 61/71/159
f 61/71/159 64/74/160 57/98/161 58/95/156
f 56/99/162 57/98/161 64/74/160 66/78/163
f 55/97/164 56/99/162 66/78/163 68/77/165
f 54/96/157 55/97/164 68/77/165 62/80/158
s 1
f 6/38/19 33/14/166 32/13/20
f 6/38/19 2/17/18 33/14/166
