# This file uses centimeters as units for non-parametric coordinates.

mtllib flagge.mtl
g default
v 0.500000 -0.000000 -0.866025
v -0.500000 -0.000000 -0.866025
v -1.000000 -0.000000 -0.000000
v -0.500000 -0.000000 0.866025
v 0.500000 -0.000000 0.866025
v 1.000000 -0.000000 0.000000
v 0.500000 0.212955 -0.866025
v 0.462614 0.277710 -0.866025
v -0.500000 0.212955 -0.866025
v -0.462614 0.277710 -0.866025
v -1.000000 0.212955 -0.000000
v -0.925228 0.277710 -0.000000
v -0.500000 0.212955 0.866025
v -0.462614 0.277710 0.866025
v 0.500000 0.212955 0.866025
v 0.462614 0.277710 0.866025
v 1.000000 0.212955 0.000000
v 0.925228 0.277710 0.000000
v 0.462614 0.277710 0.000000
v -0.462614 0.277710 -0.000000
v 0.000000 -0.000000 -0.866025
v 0.000000 0.212955 -0.866025
v -0.000000 0.212955 0.866025
v -0.000000 -0.000000 0.866025
v -0.349243 -0.000000 0.866025
v -0.349243 0.212955 0.866025
v -0.349243 0.212955 -0.866025
v -0.349243 -0.000000 -0.866025
v 0.349244 -0.000000 -0.866025
v 0.349244 0.212955 -0.866025
v 0.349243 0.212955 0.866025
v 0.349243 -0.000000 0.866025
v -0.349243 0.212955 0.000000
v 0.000000 0.212955 0.000000
v 0.349243 0.212955 0.000000
v -0.403158 0.277710 0.866025
v -0.380620 0.264983 0.866025
v -0.403158 0.277710 -0.000000
v -0.380620 0.264983 -0.000000
v -0.380620 0.264983 -0.866025
v -0.403157 0.277710 -0.866025
v 0.403158 0.277710 -0.866025
v 0.380620 0.264983 -0.866025
v 0.403158 0.277710 0.000000
v 0.380620 0.264983 0.000000
v 0.380620 0.264983 0.866025
v 0.403157 0.277710 0.866025
v 0.709680 1.409585 -0.027296
v 0.678161 1.409585 -0.027296
v 0.678161 1.409585 0.027296
v 0.709680 1.409585 0.027296
v 0.725439 1.409585 0.000000
v 0.693921 1.409585 0.000000
v 0.709680 0.301133 -0.027296
v 0.725439 0.301133 0.000000
v 0.709680 0.301133 0.027296
v 0.678161 0.301133 0.027296
v 0.678161 0.301133 -0.027296
v 0.722025 0.277710 -0.048677
v 0.665817 0.277710 -0.048677
v 0.665817 0.301133 -0.048677
v 0.722025 0.301133 -0.048677
v 0.665817 0.277710 0.048677
v 0.665817 0.301133 0.048677
v 0.722025 0.277710 0.048677
v 0.722025 0.301133 0.048677
v 0.750129 0.277710 0.000000
v 0.750129 0.301133 0.000000
v 0.709680 1.021037 -0.027296
v 0.725439 1.021037 0.000000
v 0.709680 1.021037 0.027296
v 0.678161 1.021037 0.027296
v 0.678161 1.021037 -0.027296
v 0.709680 1.356580 -0.027296
v 0.725439 1.356580 0.000000
v 0.709680 1.356580 0.027296
v 0.678161 1.356580 0.027296
v 0.678161 1.356580 -0.027296
v 0.678161 1.409585 0.008188
v 0.678161 1.409585 -0.008188
v 0.678161 1.356580 0.008188
v 0.678161 1.356580 -0.008188
v 0.678161 1.021037 0.008188
v 0.678161 1.021037 -0.008188
v 0.678161 0.301133 0.008188
v 0.678161 0.301133 -0.008188
v 0.665817 0.301133 0.008188
v 0.665817 0.301133 -0.008188
v 0.665817 0.277710 0.008188
v 0.665817 0.277710 -0.008188
v -0.678161 1.356580 -0.008188
v -0.678161 1.356580 0.008188
v -0.678161 1.021037 -0.008188
v -0.678161 1.021037 0.008188
v -0.709680 1.409585 0.027296
v -0.678161 1.409585 0.027296
v -0.678161 1.409585 -0.027296
v -0.709680 1.409585 -0.027296
v -0.725439 1.409585 0.000000
v -0.693921 1.409585 0.000000
v -0.709680 0.301133 0.027296
v -0.725439 0.301133 0.000000
v -0.709680 0.301133 -0.027296
v -0.678161 0.301133 -0.027296
v -0.678161 0.301133 0.027296
v -0.722025 0.277710 0.048677
v -0.665817 0.277710 0.048677
v -0.665817 0.301133 0.048677
v -0.722025 0.301133 0.048677
v -0.665817 0.277710 -0.048677
v -0.665817 0.301133 -0.048677
v -0.722025 0.277710 -0.048677
v -0.722025 0.301133 -0.048677
v -0.750129 0.277710 0.000000
v -0.750129 0.301133 0.000000
vt 0.299024 0.262022
vt 0.196754 0.250588
vt 0.330941 0.274788
vt 0.310990 0.242433
vt 0.753469 0.376007
vt 0.339327 0.271968
vt 0.350140 0.350490
vt 0.530252 0.217631
vt 0.835135 0.309365
vt 0.135405 0.345731
vt 0.186507 0.434143
vt 0.174521 0.453722
vt 0.746020 0.559803
vt 0.288724 0.445598
vt 0.945309 0.502571
vt 0.177261 0.767758
vt 0.259327 0.701610
vt 0.936924 0.505395
vt 0.270422 0.750113
vt 0.937318 0.511814
vt 0.847512 0.537621
vt 0.757679 0.563323
vt 0.938142 0.514471
vt 0.848301 0.540372
vt 0.758395 0.566010
vt 0.976590 0.413503
vt 0.850149 0.546789
vt 0.758867 0.572624
vt 0.987021 0.449815
vt 0.896977 0.475680
vt 0.806933 0.501545
vt 0.517409 0.204806
vt 0.426118 0.230608
vt 0.817364 0.537857
vt 0.517879 0.211420
vt 0.427963 0.237025
vt 0.338112 0.262891
vt 0.428752 0.239777
vt 0.518593 0.214107
vt 0.338935 0.265549
vt 0.430552 0.246061
vt 0.300682 0.433589
vt 0.326130 0.402325
vt 0.344404 0.366476
vt 0.141137 0.329745
vt 0.159382 0.293870
vt 0.184804 0.262600
vt 0.988720 0.000119
vt 0.992129 0.000079
vt 0.993038 0.077952
vt 0.989629 0.077992
vt 0.993462 0.114248
vt 0.990052 0.114288
vt 0.985310 0.000159
vt 0.986219 0.078031
vt 0.993529 0.119981
vt 0.990119 0.120021
vt 0.986643 0.114327
vt 0.986710 0.120061
vt 0.981234 0.120125
vt 0.979462 0.120146
vt 0.979395 0.114412
vt 0.981167 0.114391
vt 0.977395 0.120170
vt 0.977328 0.114436
vt 0.983301 0.120101
vt 0.983234 0.114367
vt 0.978972 0.078116
vt 0.976905 0.078140
vt 0.980743 0.078095
vt 0.982810 0.078071
vt 0.978063 0.000243
vt 0.975996 0.000267
vt 0.979834 0.000223
vt 0.981901 0.000198
vt 0.563476 0.117747
vt 0.563534 0.119589
vt 0.560988 0.119692
vt 0.560917 0.117781
vt 0.563919 0.124213
vt 0.561323 0.124331
vt 0.560999 0.113144
vt 0.563579 0.113108
vt 0.977435 0.123579
vt 0.980368 0.121840
vt 0.980408 0.125249
vt 0.983340 0.123510
vt 0.565012 0.121621
vt 0.568384 0.121293
vt 0.569717 0.123269
vt 0.570097 0.118420
vt 0.572999 0.118337
vt 0.564900 0.119527
vt 0.568242 0.115729
vt 0.569411 0.113662
vt 0.564843 0.117727
vt 0.564815 0.115649
vt 0.613488 0.043516
vt 0.615114 0.044218
vt 0.556934 0.178915
vt 0.555308 0.178213
vt 0.648437 0.058611
vt 0.650063 0.059314
vt 0.591883 0.194011
vt 0.590257 0.193308
vt 0.571114 0.125219
vt 0.564627 0.126893
vt 0.575014 0.119957
vt 0.564083 0.110561
vt 0.570512 0.111529
vt 0.575041 0.116482
vt 0.995539 0.000039
vt 0.996448 0.077912
vt 0.996871 0.114208
vt 0.996938 0.119942
vt 0.117810 0.325073
vt 0.112183 0.349505
vt 0.313324 0.451868
vt 0.345614 0.415479
vt 0.367733 0.371183
vt 0.373362 0.346715
vt 0.172129 0.244345
vt 0.139856 0.280767
vt 0.256906 0.691025
vt 0.191205 0.229902
vt 0.755954 0.386576
vt 0.294251 0.466290
vt 0.742081 0.327571
vt 0.650664 0.352736
vt 0.521636 0.219692
vt 0.845709 0.531338
vt 0.754635 0.557739
vt 0.361990 0.725501
vt 0.173884 0.760314
vt 0.650909 0.360905
vt 0.838556 0.316788
vt 0.361794 0.717330
vt 0.683386 0.073707
vt 0.625206 0.208404
vt 0.044400 0.113193
vt 0.046950 0.113140
vt 0.047230 0.123979
vt 0.044680 0.124060
vt 0.035906 0.124851
vt 0.033655 0.118949
vt 0.036047 0.118804
vt 0.038350 0.124027
vt 0.035472 0.112741
vt 0.038099 0.113520
vt 0.053927 0.055662
vt 0.057337 0.055663
vt 0.057302 0.175574
vt 0.053892 0.175573
vt 0.050518 0.055661
vt 0.050483 0.175572
vt 0.066617 0.175576
vt 0.060711 0.175575
vt 0.060746 0.055664
vt 0.066652 0.055666
vt 0.060710 0.178984
vt 0.063664 0.177280
vt 0.063663 0.180690
vt 0.066616 0.178986
vt 0.043151 0.115618
vt 0.039740 0.115750
vt 0.038423 0.118744
vt 0.043309 0.121711
vt 0.039908 0.121707
vt 0.037942 0.110990
vt 0.044192 0.110635
vt 0.044588 0.126626
vt 0.038312 0.126561
vt 0.070062 0.055667
vt 0.070027 0.175577
vt 0.886546 0.439368
vt 0.796502 0.465233
vt 0.907408 0.511992
vt 0.335034 0.257096
vt 0.941222 0.520265
vt 0.997451 0.486127
vn 0.696923 0.603553 -0.387326
vn 0.696924 0.603553 -0.387326
vn 0.696923 0.603553 -0.387326
vn 0.696923 0.603553 -0.387326
vn -0.000001 0.000000 -1.000000
vn -0.000000 0.000000 -1.000000
vn -0.000000 0.000000 -1.000000
vn -0.696923 0.603554 -0.387326
vn -0.696923 0.603554 -0.387326
vn -0.696923 0.603554 -0.387326
vn -0.696923 0.603554 -0.387326
vn -0.696924 0.603553 0.387326
vn -0.696924 0.603553 0.387326
vn -0.696924 0.603553 0.387326
vn -0.696924 0.603553 0.387326
vn 0.696923 0.603553 0.387326
vn 0.696923 0.603553 0.387326
vn 0.696923 0.603553 0.387326
vn 0.696923 0.603553 0.387326
vn 0.000000 0.000000 -1.000000
vn 0.000000 0.000000 -1.000000
vn 0.000000 0.000000 -1.000000
vn 0.000000 0.000000 -1.000000
vn -0.866025 0.000000 -0.500000
vn -0.866025 0.000000 -0.500000
vn -0.866025 0.000000 -0.500000
vn -0.866025 0.000000 -0.500000
vn -0.866026 0.000000 0.500000
vn -0.866026 0.000000 0.500000
vn -0.866026 0.000000 0.500000
vn -0.866026 0.000000 0.500000
vn 0.000000 0.000000 1.000000
vn 0.000000 0.000000 1.000000
vn 0.000000 0.000000 1.000000
vn 0.000000 0.000000 1.000000
vn 0.866026 0.000000 0.500000
vn 0.866026 0.000000 0.500000
vn 0.866026 0.000000 0.500000
vn 0.866026 0.000000 0.500000
vn 0.866026 0.000000 -0.500000
vn 0.866026 0.000000 -0.500000
vn 0.866026 0.000000 -0.500000
vn 0.866026 0.000000 -0.500000
vn 0.000000 1.000000 -0.000000
vn 0.000000 1.000000 -0.000000
vn 0.000000 1.000000 -0.000000
vn 0.000000 1.000000 0.000000
vn 0.000000 1.000000 0.000000
vn 0.000000 1.000000 0.000000
vn 0.000000 1.000000 0.000000
vn 0.000000 1.000000 0.000000
vn 0.000000 0.000000 -1.000000
vn 0.000000 0.000000 -1.000000
vn 0.000000 0.000000 -1.000000
vn 0.000000 0.000000 -1.000000
vn 0.000000 0.000000 1.000000
vn 0.000000 0.000000 1.000000
vn 0.000000 0.000000 1.000000
vn 0.000000 0.000000 1.000000
vn 0.000000 0.000000 1.000000
vn 0.000000 0.000000 1.000000
vn 0.000000 0.000000 1.000000
vn 0.000000 0.000000 1.000000
vn 0.000000 0.000000 1.000000
vn 0.000000 0.000000 -1.000000
vn 0.000000 0.000000 -1.000000
vn 0.000000 1.000000 -0.000000
vn 0.000000 1.000000 -0.000000
vn 0.000000 1.000000 -0.000000
vn 0.000000 1.000000 -0.000000
vn 0.000000 1.000000 -0.000000
vn 0.000000 1.000000 -0.000000
vn 0.000000 1.000000 0.000000
vn 0.000000 1.000000 0.000000
vn 0.000000 1.000000 0.000000
vn 0.000000 1.000000 0.000000
vn 0.000000 1.000000 0.000000
vn 0.000000 1.000000 0.000000
vn 0.000000 0.000000 -1.000000
vn 0.000000 0.000000 -1.000000
vn 0.000000 0.000000 -1.000000
vn 0.000000 0.000000 1.000000
vn 0.000000 0.000000 1.000000
vn 0.000000 0.000000 1.000000
vn 0.153381 0.988167 0.000000
vn 0.768503 0.639847 0.000000
vn 0.768502 0.639847 0.000000
vn 0.153381 0.988167 0.000000
vn 0.768502 0.639848 0.000000
vn 0.153381 0.988167 0.000000
vn -0.153382 0.988167 -0.000000
vn -0.768503 0.639846 -0.000000
vn -0.768503 0.639847 -0.000000
vn -0.153382 0.988167 -0.000000
vn -0.768502 0.639847 -0.000000
vn -0.153382 0.988167 -0.000000
vn -0.856330 0.516430 -0.000000
vn -0.856329 0.516431 -0.000000
vn -0.856330 0.516429 -0.000000
vn 0.856329 0.516431 0.000000
vn 0.856329 0.516431 0.000000
vn 0.856329 0.516430 0.000000
vn 0.000000 0.000000 1.000000
vn 0.000000 0.000000 1.000000
vn 0.000000 0.000000 1.000000
vn 0.000000 0.000000 1.000000
vn 0.000000 0.000000 -1.000000
vn 0.000000 0.000000 -1.000000
vn 0.000000 0.000000 -1.000000
vn 0.000000 0.000000 -1.000000
vn 0.000000 0.000000 -1.000000
vn 0.000000 0.000000 -1.000000
vn 0.000000 0.000000 -1.000000
vn 0.000000 0.000000 -1.000000
vn -0.000000 0.000000 1.000000
vn -0.000000 0.000000 1.000000
vn -0.000000 0.000000 1.000000
vn -0.000000 0.000000 1.000000
vn 0.866025 0.000000 0.500002
vn 0.866025 0.000000 0.500002
vn 0.866025 0.000000 0.500002
vn 0.866025 0.000000 0.500002
vn 0.866025 0.000000 -0.500002
vn 0.866025 0.000000 -0.500002
vn 0.866025 0.000000 -0.500002
vn 0.866025 0.000000 -0.500002
vn 0.000000 1.000000 0.000002
vn 0.000000 1.000000 0.000004
vn 0.000000 1.000000 0.000000
vn 0.000000 1.000000 0.000000
vn 0.000000 1.000000 -0.000004
vn 0.000000 1.000000 -0.000002
vn 0.000000 1.000000 0.000000
vn 0.866029 0.000000 -0.499994
vn 0.866029 0.000000 -0.499994
vn 0.866029 0.000000 -0.499994
vn 0.866029 0.000000 -0.499994
vn 0.866029 0.000000 0.499993
vn 0.866029 0.000000 0.499993
vn 0.866029 0.000000 0.499993
vn 0.866029 0.000000 0.499993
vn -0.000000 0.000000 1.000000
vn -0.000000 0.000000 1.000000
vn -0.000000 -0.000000 1.000000
vn -0.000000 -0.000000 1.000000
vn 0.000000 0.000000 -1.000000
vn 0.000000 0.000000 -1.000000
vn 0.000000 -0.000000 -1.000000
vn 0.000000 -0.000000 -1.000000
vn 0.000000 1.000000 0.000000
vn 0.000000 1.000000 -0.000000
vn 0.000000 1.000000 -0.000000
vn 0.000000 1.000000 0.000000
vn 0.000000 1.000000 0.000000
vn 0.000000 1.000000 0.000000
vn 0.000000 1.000000 0.000000
vn 0.000000 1.000000 0.000000
vn 0.000000 1.000000 -0.000000
vn 0.000000 1.000000 -0.000000
vn 0.866029 0.000000 -0.499994
vn 0.866029 0.000000 -0.499994
vn 0.866029 0.000000 0.499993
vn 0.866029 0.000000 0.499993
vn -0.000000 -0.000000 1.000000
vn -0.000000 -0.000000 1.000000
vn 0.000000 -0.000000 -1.000000
vn 0.000000 -0.000000 -1.000000
vn 0.866029 0.000000 -0.499994
vn 0.866029 0.000000 -0.499994
vn 0.866029 0.000000 0.499994
vn 0.866029 0.000000 0.499994
vn -0.000000 0.000000 1.000000
vn -0.000000 0.000000 1.000000
vn 0.000000 0.000000 -1.000000
vn 0.000000 0.000000 -1.000000
vn -1.000000 0.000000 0.000000
vn -1.000000 0.000000 0.000000
vn -1.000000 0.000000 0.000000
vn -1.000000 0.000000 0.000000
vn -1.000000 0.000000 0.000000
vn -1.000000 0.000000 0.000000
vn -1.000000 0.000000 0.000000
vn -1.000000 0.000000 0.000000
vn 0.000000 1.000000 0.000000
vn 0.000000 1.000000 0.000000
vn 0.000000 1.000000 0.000000
vn 0.000000 1.000000 0.000000
vn -1.000000 0.000000 0.000000
vn -1.000000 -0.000001 0.000000
vn -1.000000 -0.000001 0.000000
vn -1.000000 0.000000 0.000000
vn -1.000000 0.000000 0.000000
vn -1.000000 0.000000 0.000000
vn -1.000000 0.000000 0.000000
vn -1.000000 0.000000 0.000000
vn -1.000000 0.000000 0.000000
vn -1.000000 0.000000 0.000000
vn -1.000000 0.000000 0.000000
vn -1.000000 0.000000 0.000000
vn -1.000000 0.000000 0.000000
vn -1.000000 0.000000 0.000000
vn -1.000000 -0.000002 0.000000
vn -1.000000 -0.000002 0.000000
vn 0.000000 1.000000 0.000000
vn 0.000000 1.000000 0.000000
vn 0.000000 1.000000 0.000000
vn 0.000000 1.000000 0.000000
vn 0.000000 0.000000 -1.000000
vn 0.000000 0.000000 -1.000000
vn 0.000000 0.000000 -1.000000
vn 0.000000 0.000000 -1.000000
vn 0.000000 -1.000000 0.000000
vn 0.000000 -1.000000 0.000000
vn 0.000000 -1.000000 0.000000
vn 0.000000 -1.000000 0.000000
vn 0.000000 0.000000 1.000000
vn 0.000000 0.000000 1.000000
vn 0.000000 0.000000 1.000000
vn 0.000000 0.000000 1.000000
vn -0.000000 0.000000 1.000000
vn -0.000000 0.000000 1.000000
vn -0.000000 0.000000 1.000000
vn -0.000000 0.000000 1.000000
vn 1.000000 0.000000 0.000000
vn 1.000000 0.000000 0.000000
vn 1.000000 0.000000 0.000000
vn 1.000000 0.000000 0.000000
vn 0.000000 0.000000 -1.000000
vn 0.000000 0.000000 -1.000000
vn 0.000000 0.000000 -1.000000
vn 0.000000 0.000000 -1.000000
vn -0.866026 0.000000 -0.499999
vn -0.866026 0.000000 -0.499999
vn -0.866026 0.000000 -0.499999
vn -0.866026 0.000000 -0.499999
vn -0.866026 0.000000 0.499999
vn -0.866026 0.000000 0.499999
vn -0.866026 0.000000 0.499999
vn -0.866026 0.000000 0.499999
vn 0.000000 1.000000 -0.000002
vn 0.000000 1.000000 -0.000003
vn 0.000000 1.000000 -0.000001
vn 0.000000 1.000000 0.000003
vn 0.000000 1.000000 -0.000000
vn 0.000000 1.000000 -0.000002
vn -0.866027 0.000000 0.499998
vn -0.866027 0.000000 0.499998
vn -0.866027 0.000000 0.499998
vn -0.866027 0.000000 0.499998
vn -0.866027 0.000000 -0.499998
vn -0.866027 0.000000 -0.499998
vn -0.866027 0.000000 -0.499998
vn -0.866027 0.000000 -0.499998
vn 0.000000 -0.000000 -1.000000
vn 0.000000 -0.000000 -1.000000
vn 0.000000 -0.000000 -1.000000
vn 0.000000 -0.000000 -1.000000
vn 1.000000 0.000000 0.000000
vn 1.000000 0.000000 0.000000
vn 1.000000 0.000000 0.000000
vn 1.000000 0.000000 0.000000
vn -0.000000 -0.000000 1.000000
vn -0.000000 -0.000000 1.000000
vn -0.000000 -0.000000 1.000000
vn -0.000000 -0.000000 1.000000
vn 0.000000 1.000000 0.000000
vn 0.000000 1.000000 0.000001
vn 0.000000 1.000000 0.000001
vn 0.000000 1.000000 0.000000
vn 0.000000 1.000000 -0.000000
vn 0.000000 1.000000 -0.000000
vn 0.000000 1.000000 -0.000001
vn 0.000000 1.000000 -0.000001
vn 0.000000 1.000000 0.000000
vn 0.000000 1.000000 0.000000
vn 0.000000 1.000000 0.000000
s off
g flagg tracks og
usemtl lambert3SG
f 7/137/1 8/133/2 18/17/3 17/124/4
s 1
f 42/20/5 7/15/6 43/23/7
s off
f 10/9/8 9/136/9 11/126/10 12/5/11
f 12/5/12 11/126/13 13/135/14 14/129/15
f 16/16/16 15/134/17 17/124/18 18/17/19
s 2
f 1/14/20 29/42/21 30/118/22 7/127/23
s off
f 2/7/24 3/1/25 11/4/26 9/121/27
f 3/1/28 4/2/29 13/125/30 11/4/31
s 3
f 31/116/32 32/45/33 5/10/34 15/117/35
s off
f 5/10/36 6/11/37 17/12/38 15/117/39
f 6/11/40 1/14/41 7/127/42 17/12/43
s 4
f 16/16/44 18/17/45 19/19/46
f 18/17/45 8/133/47 19/19/46
s 5
f 10/9/48 12/5/49 20/128/50
f 14/129/51 20/128/50 12/5/49
s 2
f 27/120/52 28/44/53 2/7/54 9/121/55
s 7
f 37/37/56 13/3/57 26/178/58
s 3
f 4/2/59 25/47/60 26/122/61 13/125/62
f 26/122/61 25/47/60 24/46/63 23/123/64
s 2
f 22/119/65 21/43/66 28/44/53 27/120/52
f 30/118/22 29/42/21 21/43/66 22/119/65
s 3
f 23/123/64 24/46/63 32/45/33 31/116/32
s 9
f 30/26/67 22/29/68 34/30/69 35/175/70
s 10
f 22/29/71 27/180/72 33/177/73 34/30/74
f 34/30/74 33/177/73 26/34/75 23/31/76
s 9
f 35/175/70 34/30/69 23/31/77 31/176/78
s 11
f 41/39/79 40/35/80 9/8/81
s 12
f 47/22/82 15/13/83 16/132/84
s 5
f 36/40/85 37/37/86 39/36/87 38/38/88
f 38/38/88 39/36/87 40/35/89 41/39/90
s 4
f 42/20/91 43/23/92 45/24/93 44/21/94
f 44/21/94 45/24/93 46/25/95 47/22/96
f 16/132/44 19/131/46 44/21/94 47/22/96
f 19/131/46 8/18/47 42/20/91 44/21/94
s 5
f 38/38/88 41/39/90 10/130/48 20/41/50
f 36/40/85 38/38/88 20/41/50 14/6/51
s 4
f 46/25/95 45/24/93 35/27/97 31/28/98
f 45/24/93 43/23/92 30/179/99 35/27/97
s 5
f 40/35/89 39/36/87 33/33/100 27/32/101
f 39/36/87 37/37/86 26/178/102 33/33/100
s 12
f 15/13/83 46/25/103 31/28/104
f 47/22/82 46/25/103 15/13/83
s 7
f 14/6/105 13/3/57 36/40/106
f 36/40/106 13/3/57 37/37/56
s 1
f 8/18/107 7/15/6 42/20/5
f 43/23/7 7/15/6 30/179/108
s 11
f 9/8/81 40/35/80 27/32/109
f 41/39/79 9/8/81 10/130/110
s off
f 59/106/111 60/107/112 61/80/113 62/90/114
f 63/109/115 65/110/116 66/95/117 64/83/118
f 65/110/119 67/111/120 68/92/121 66/95/122
f 67/108/123 59/106/124 62/90/125 68/92/126
s 15
f 48/84/127 49/64/128 53/85/129
f 53/85/129 79/60/130 50/66/131
f 50/66/131 51/87/132 53/85/129
f 51/87/132 52/86/133 53/85/129
f 52/86/133 48/84/127 53/85/129
s 17
f 55/48/134 54/49/135 69/50/136 70/51/137
s 18
f 56/54/138 55/48/139 70/51/140 71/55/141
s 19
f 57/75/142 56/54/143 71/55/144 72/71/145
s 20
f 54/49/146 58/112/147 73/113/148 69/50/149
s 21
f 58/88/150 54/89/151 62/90/152 61/80/153
f 56/94/154 57/97/155 64/83/156 66/95/157
f 55/91/158 56/94/154 66/95/157 68/92/159
f 54/89/151 55/91/158 68/92/159 62/90/152
s 17
f 70/51/137 69/50/136 74/52/160 75/53/161
s 18
f 71/55/141 70/51/140 75/53/162 76/58/163
s 19
f 72/71/145 71/55/144 76/58/164 77/67/165
s 20
f 69/50/149 73/113/148 78/114/166 74/52/167
s 17
f 75/53/161 74/52/160 48/56/168 52/57/169
s 18
f 76/58/163 75/53/162 52/57/170 51/59/171
s 19
f 77/67/165 76/58/164 51/59/172 50/66/173
s 20
f 74/52/167 78/114/166 49/115/174 48/56/175
s 23
f 79/60/176 80/61/177 82/62/178 81/63/179
f 83/70/180 84/68/181 86/72/182 85/74/183
s 21
f 85/96/184 86/93/185 88/77/186 87/76/187
s 25
f 87/76/188 88/77/189 90/78/190 89/79/191
f 87/76/188 89/79/191 63/82/192 64/83/193
s 23
f 72/71/194 83/70/180 85/74/183 57/75/195
s 21
f 85/96/184 87/76/187 64/83/156 57/97/155
s 23
f 77/67/196 81/63/179 83/70/180 72/71/194
f 50/66/197 79/60/176 81/63/179 77/67/196
f 82/62/178 80/61/177 49/64/198 78/65/199
f 84/68/181 82/62/178 78/65/199 73/69/200
f 86/72/182 84/68/181 73/69/200 58/73/201
s 21
f 61/80/153 88/77/186 86/93/185 58/88/150
s 25
f 61/80/202 60/81/203 90/78/190 88/77/189
s off
f 81/98/204 82/99/205 91/100/206 92/101/207
f 82/99/208 84/102/209 93/105/210 91/100/211
f 84/102/212 83/103/213 94/104/214 93/105/215
f 83/103/216 81/138/217 92/139/218 94/104/219
f 106/169/220 107/170/221 108/140/222 109/149/223
f 108/140/224 107/141/225 110/142/226 111/143/227
f 110/171/228 112/172/229 113/147/230 111/143/231
f 112/144/232 114/145/233 115/146/234 113/147/235
f 114/145/236 106/148/237 109/149/238 115/146/239
s 26
f 95/160/240 96/157/241 100/161/242
f 100/161/242 96/157/241 97/156/243
f 97/156/243 98/163/244 100/161/242
f 98/163/244 99/162/245 100/161/242
f 99/162/245 95/160/240 100/161/242
s off
f 102/150/246 101/151/247 95/152/248 99/153/249
f 103/154/250 102/150/251 99/153/252 98/155/253
f 104/159/254 103/173/255 98/174/256 97/156/257
f 97/156/258 96/157/259 105/158/260 104/159/261
f 101/151/262 105/158/263 96/157/264 95/152/265
s 27
f 105/164/266 101/165/267 109/149/268 108/140/269
f 108/140/269 111/143/270 104/167/271 105/164/266
f 103/168/272 104/167/271 111/143/270 113/147/273
f 102/166/274 103/168/272 113/147/273 115/146/275
f 101/165/267 102/166/274 115/146/275 109/149/268
s 15
f 53/85/129 80/61/276 79/60/130
f 53/85/129 49/64/128 80/61/276
