# This file uses centimeters as units for non-parametric coordinates.

mtllib gerade.mtl
g default
v 0.500000 0.000000 -0.866025
v -0.500000 0.000000 -0.866025
v -1.000000 0.000000 -0.000000
v -0.500000 0.000000 0.866025
v 0.500000 0.000000 0.866025
v 1.000000 0.000000 0.000000
v 0.500000 0.212955 -0.866025
v 0.462614 0.277710 -0.866025
v -0.500000 0.212955 -0.866025
v -0.462614 0.277710 -0.866025
v -1.000000 0.212955 -0.000000
v -0.925228 0.277710 -0.000000
v -0.500000 0.212955 0.866025
v -0.462614 0.277710 0.866025
v 0.500000 0.212955 0.866025
v 0.462614 0.277710 0.866025
v 1.000000 0.212955 0.000000
v 0.925228 0.277710 -0.000000
v 0.462614 0.277710 -0.000000
v -0.462614 0.277710 -0.000000
v 0.000000 0.000000 -0.866025
v 0.000000 0.212955 -0.866025
v -0.000000 0.212955 0.866025
v -0.000000 0.000000 0.866025
v -0.349243 0.000000 0.866025
v -0.349243 0.212955 0.866025
v -0.349243 0.212955 -0.866025
v -0.349243 0.000000 -0.866025
v 0.349244 0.000000 -0.866025
v 0.349244 0.212955 -0.866025
v 0.349243 0.212955 0.866025
v 0.349243 0.000000 0.866025
v -0.349243 0.212955 0.000000
v 0.000000 0.212955 0.000000
v 0.349243 0.212955 0.000000
v -0.403158 0.277710 0.866025
v -0.380620 0.264983 0.866025
v -0.403158 0.277710 -0.000000
v -0.380620 0.264983 -0.000000
v -0.380620 0.264983 -0.866025
v -0.403157 0.277710 -0.866025
v 0.403158 0.277710 -0.866025
v 0.380620 0.264983 -0.866025
v 0.403158 0.277710 -0.000000
v 0.380620 0.264983 -0.000000
v 0.380620 0.264983 0.866025
v 0.403157 0.277710 0.866025
vt 0.229372 0.581670
vt 0.195966 0.482925
vt 0.163353 0.937773
vt 0.252487 0.584236
vt 0.617190 0.621163
vt 0.170158 0.666549
vt 0.372541 0.957001
vt 0.082331 0.467437
vt 0.023113 0.552311
vt 0.000000 0.549724
vt 0.073227 0.931651
vt 0.056504 0.651045
vt 0.282422 0.950808
vt 0.766656 0.288645
vt 0.112275 0.666788
vt 0.502341 0.913563
vt 0.313300 0.896243
vt 0.140203 0.467206
vt 0.179813 0.477116
vt 0.153024 0.668155
vt 0.072658 0.656861
vt 0.099463 0.465833
vt 0.407821 0.904903
vt 0.174493 0.929173
vt 0.362827 0.949392
vt 0.271284 0.959412
vt 0.082944 0.939257
vt 0.665219 0.322039
vt 0.177811 0.941387
vt 0.273467 0.950394
vt 0.271482 0.956601
vt 0.177206 0.947982
vt 0.711455 0.570977
vt 0.267960 0.947230
vt 0.174295 0.931984
vt 0.268568 0.940636
vt 0.172307 0.938190
vt 0.082632 0.942057
vt 0.176941 0.950870
vt 0.080649 0.948476
vt 0.505834 0.875445
vt 0.176328 0.957608
vt 0.363140 0.946592
vt 0.268834 0.937748
vt 0.365125 0.940174
vt 0.309807 0.934360
vt 0.269449 0.931010
vt 0.093760 0.442418
vt 0.068900 0.447745
vt 0.061319 0.676313
vt 0.108583 0.690318
vt 0.158738 0.691582
vt 0.183602 0.686232
vt 0.191135 0.457653
vt 0.143873 0.443667
vt 0.768142 0.277745
vt 0.212569 0.468955
vt 0.617583 0.632156
vt 0.039891 0.665004
vt 0.615391 0.570785
vt 0.519586 0.577829
vt 0.363649 0.955783
vt 0.759846 0.338593
vt 0.082120 0.932866
vt 0.855452 0.347972
vt 0.664678 0.313775
vt 0.518223 0.585998
vt 0.713397 0.579027
vt 0.858186 0.340155
vt 0.411313 0.866785
vt 0.316792 0.858125
vt 0.404328 0.943020
vt 0.173716 0.922571
vt 0.272065 0.966014
vt 0.498849 0.951681
vn 0.696923 0.603553 -0.387326
vn 0.696924 0.603553 -0.387326
vn 0.696923 0.603553 -0.387326
vn 0.696923 0.603553 -0.387326
vn -0.000001 0.000000 -1.000000
vn -0.000000 0.000000 -1.000000
vn -0.000000 0.000000 -1.000000
vn -0.696923 0.603554 -0.387326
vn -0.696923 0.603554 -0.387326
vn -0.696923 0.603554 -0.387326
vn -0.696923 0.603554 -0.387326
vn -0.696924 0.603553 0.387326
vn -0.696924 0.603553 0.387326
vn -0.696924 0.603553 0.387326
vn -0.696924 0.603553 0.387326
vn 0.696923 0.603553 0.387326
vn 0.696923 0.603553 0.387326
vn 0.696923 0.603553 0.387326
vn 0.696923 0.603553 0.387326
vn 0.000000 0.000000 -1.000000
vn 0.000000 0.000000 -1.000000
vn 0.000000 0.000000 -1.000000
vn 0.000000 0.000000 -1.000000
vn -0.866025 0.000000 -0.500000
vn -0.866025 0.000000 -0.500000
vn -0.866025 0.000000 -0.500000
vn -0.866025 0.000000 -0.500000
vn -0.866026 0.000000 0.500000
vn -0.866026 0.000000 0.500000
vn -0.866026 0.000000 0.500000
vn -0.866026 0.000000 0.500000
vn 0.000000 0.000000 1.000000
vn 0.000000 0.000000 1.000000
vn 0.000000 0.000000 1.000000
vn 0.000000 0.000000 1.000000
vn 0.866026 0.000000 0.500000
vn 0.866026 0.000000 0.500000
vn 0.866026 0.000000 0.500000
vn 0.866026 0.000000 0.500000
vn 0.866026 0.000000 -0.500000
vn 0.866026 0.000000 -0.500000
vn 0.866026 0.000000 -0.500000
vn 0.866026 0.000000 -0.500000
vn 0.000000 1.000000 -0.000000
vn 0.000000 1.000000 -0.000000
vn 0.000000 1.000000 -0.000000
vn 0.000000 1.000000 0.000000
vn 0.000000 1.000000 0.000000
vn 0.000000 1.000000 0.000000
vn 0.000000 1.000000 0.000000
vn 0.000000 1.000000 0.000000
vn 0.000000 0.000000 -1.000000
vn 0.000000 0.000000 -1.000000
vn 0.000000 0.000000 -1.000000
vn 0.000000 0.000000 -1.000000
vn 0.000000 0.000000 1.000000
vn 0.000000 0.000000 1.000000
vn 0.000000 0.000000 1.000000
vn 0.000000 0.000000 1.000000
vn 0.000000 0.000000 1.000000
vn 0.000000 0.000000 1.000000
vn 0.000000 0.000000 1.000000
vn 0.000000 0.000000 1.000000
vn 0.000000 0.000000 1.000000
vn 0.000000 0.000000 -1.000000
vn 0.000000 0.000000 -1.000000
vn 0.000000 1.000000 -0.000000
vn 0.000000 1.000000 -0.000000
vn 0.000000 1.000000 -0.000000
vn 0.000000 1.000000 -0.000000
vn 0.000000 1.000000 -0.000000
vn 0.000000 1.000000 -0.000000
vn 0.000000 1.000000 0.000000
vn 0.000000 1.000000 0.000000
vn 0.000000 1.000000 0.000000
vn 0.000000 1.000000 0.000000
vn 0.000000 1.000000 0.000000
vn 0.000000 1.000000 0.000000
vn 0.000000 0.000000 -1.000000
vn 0.000000 0.000000 -1.000000
vn 0.000000 0.000000 -1.000000
vn 0.000000 0.000000 1.000000
vn 0.000000 0.000000 1.000000
vn 0.000000 0.000000 1.000000
vn 0.153381 0.988167 0.000000
vn 0.768503 0.639847 0.000000
vn 0.768502 0.639847 0.000000
vn 0.153381 0.988167 0.000000
vn 0.768502 0.639848 0.000000
vn 0.153381 0.988167 0.000000
vn -0.153382 0.988167 -0.000000
vn -0.768503 0.639846 -0.000000
vn -0.768503 0.639847 -0.000000
vn -0.153382 0.988167 -0.000000
vn -0.768502 0.639847 -0.000000
vn -0.153382 0.988167 -0.000000
vn -0.856330 0.516430 -0.000000
vn -0.856329 0.516431 -0.000000
vn -0.856330 0.516429 -0.000000
vn 0.856329 0.516431 0.000000
vn 0.856329 0.516431 0.000000
vn 0.856329 0.516430 0.000000
vn 0.000000 0.000000 1.000000
vn 0.000000 0.000000 1.000000
vn 0.000000 0.000000 1.000000
vn 0.000000 0.000000 1.000000
vn 0.000000 0.000000 -1.000000
vn 0.000000 0.000000 -1.000000
vn 0.000000 0.000000 -1.000000
vn 0.000000 0.000000 -1.000000
s off
g gerade tracks uv_done_textures_needed og
usemtl lambert3SG
f 7/69/1 8/65/2 18/14/3 17/56/4
s 1
f 42/31/5 7/13/6 43/26/7
s off
f 10/33/8 9/68/9 11/58/10 12/5/11
f 12/5/12 11/58/13 13/67/14 14/61/15
f 16/28/16 15/66/17 17/56/18 18/14/19
s 2
f 1/12/20 29/21/21 30/50/22 7/59/23
s off
f 2/6/24 3/1/25 11/4/26 9/53/27
f 3/1/28 4/2/29 13/57/30 11/4/31
s 3
f 31/48/32 32/22/33 5/8/34 15/49/35
s off
f 5/8/36 6/9/37 17/10/38 15/49/39
f 6/9/40 1/12/41 7/59/42 17/10/43
s 4
f 16/28/44 18/14/45 19/63/46
f 18/14/45 8/65/47 19/63/46
s 5
f 10/33/48 12/5/49 20/60/50
f 12/5/49 14/61/51 20/60/50
s 2
f 27/52/52 28/20/53 2/6/54 9/53/55
s 7
f 37/24/56 13/3/57 26/73/58
s 3
f 4/2/59 25/19/60 26/54/61 13/57/62
f 26/54/61 25/19/60 24/18/63 23/55/64
s 2
f 22/51/65 21/15/66 28/20/53 27/52/52
f 30/50/22 29/21/21 21/15/66 22/51/65
s 3
f 23/55/64 24/18/63 32/22/33 31/48/32
s 9
f 30/41/67 22/16/68 34/23/69 35/70/70
s 10
f 22/16/71 27/75/72 33/72/73 34/23/74
f 34/23/74 33/72/73 26/46/75 23/17/76
s 9
f 35/70/70 34/23/69 23/17/77 31/71/78
s 11
f 41/25/79 40/43/80 9/7/81
s 12
f 47/27/82 15/11/83 16/64/84
s 5
f 36/35/85 37/24/86 39/44/87 38/36/88
f 38/36/88 39/44/87 40/43/89 41/25/90
s 4
f 42/31/91 43/26/92 45/39/93 44/32/94
f 44/32/94 45/39/93 46/38/95 47/27/96
f 16/64/44 19/29/46 44/32/94 47/27/96
f 19/29/46 8/30/47 42/31/91 44/32/94
s 5
f 38/36/88 41/25/90 10/62/48 20/34/50
f 36/35/85 38/36/88 20/34/50 14/37/51
s 4
f 46/38/95 45/39/93 35/42/97 31/40/98
f 45/39/93 43/26/92 30/74/99 35/42/97
s 5
f 40/43/89 39/44/87 33/47/100 27/45/101
f 39/44/87 37/24/86 26/73/102 33/47/100
s 12
f 15/11/83 46/38/103 31/40/104
f 47/27/82 46/38/103 15/11/83
s 7
f 14/37/105 13/3/57 36/35/106
f 36/35/106 13/3/57 37/24/56
s 1
f 8/30/107 7/13/6 42/31/5
f 43/26/7 7/13/6 30/74/108
s 11
f 9/7/81 40/43/80 27/45/109
f 41/25/79 9/7/81 10/62/110
