# This file uses centimeters as units for non-parametric coordinates.

mtllib kurve.mtl
g default
v 1.000000 0.000000 0.000000
v 0.500000 0.000000 -0.866025
v -0.500000 0.000000 -0.866025
v 0.500000 0.000000 0.866025
v 1.000000 0.212955 0.000000
v 0.981307 0.277710 -0.032377
v 0.500000 0.212955 -0.866025
v 0.518693 0.277710 -0.833648
v -0.500000 0.212955 -0.866025
v -0.518693 0.277710 -0.833648
v 0.500000 0.212955 0.866025
v 0.462614 0.277710 0.801271
v 0.549641 0.277710 0.276044
v 0.091121 0.277710 -0.518135
v 0.750000 0.000000 -0.433013
v 0.750000 0.212955 -0.433013
v 0.575379 0.212955 -0.735466
v 0.575379 0.000000 -0.735466
v 0.924622 0.000000 -0.130559
v 0.924622 0.212955 -0.130559
v 0.118078 0.212955 -0.471444
v 0.292700 0.212955 -0.168990
v 0.492956 0.212955 0.177862
v 0.102390 0.264983 -0.498617
v 0.559690 0.264983 -0.762639
v 0.548421 0.277710 -0.782157
v 0.951579 0.277710 -0.083868
v 0.940310 0.264983 -0.103386
v 0.519913 0.277710 0.224553
v 0.508644 0.264983 0.205035
v -0.411168 0.277710 0.302843
v -0.981307 0.277710 -0.032378
v -0.087623 0.212955 -0.455297
v -0.354483 0.212955 0.204661
v -0.575378 0.212955 -0.735466
v -0.750000 0.212955 -0.433013
v -0.924621 0.212955 -0.130559
v -0.548421 0.277710 -0.782157
v -0.559690 0.264983 -0.762639
v -0.071934 0.264983 -0.482470
v -0.060666 0.277710 -0.501988
v -0.381440 0.277710 0.251352
v -0.370171 0.264983 0.231834
v -0.951578 0.277710 -0.083868
v -0.940310 0.264983 -0.103386
v -0.462614 0.277710 0.801270
v -1.000000 0.000000 -0.000000
v -0.500000 0.000000 0.866025
v -1.000000 0.212955 -0.000000
v -0.500000 0.212955 0.866025
v -0.750000 0.000000 -0.433013
v -0.924991 -0.000000 -0.129919
v -0.599236 0.000000 -0.694144
v 0.094719 0.264983 0.364478
v 0.105988 0.277710 0.383996
v 0.144792 0.277710 0.451207
v 0.079031 0.212955 0.337305
v -0.221053 0.212955 -0.125318
v -0.091891 0.000000 -0.866026
v -0.091891 0.212955 -0.866026
v -0.095326 0.277710 -0.833648
v 0.115931 0.000000 -0.866025
v 0.115931 0.212955 -0.866025
v 0.120265 0.277710 -0.833648
v 0.035823 0.212955 -0.147154
v 0.069236 0.212955 0.191262
vt 0.727338 0.625102
vt 0.706212 0.613925
vt 0.720051 0.577072
vt 0.981634 0.338335
vt 0.702571 0.665041
vt 0.686938 0.648760
vt 0.724047 0.561734
vt 0.997388 0.331291
vt 0.677113 0.663187
vt 0.989274 0.511303
vt 0.987568 0.341443
vt 0.993522 0.524588
vt 0.571360 0.672294
vt 0.889283 0.371105
vt 0.990284 0.342195
vt 0.990966 0.523494
vt 0.985929 0.519620
vt 0.898568 0.376969
vt 0.996311 0.339598
vt 0.993683 0.482080
vt 0.657557 0.472275
vt 0.636902 0.472267
vt 0.644904 0.448525
vt 0.602602 0.477307
vt 0.597034 0.453680
vt 0.984380 0.471464
vt 0.562605 0.486596
vt 0.550536 0.465951
vt 0.987119 0.470846
vt 0.546647 0.492311
vt 0.960680 0.551725
vt 0.993012 0.473731
vt 0.512708 0.585624
vt 0.490059 0.590257
vt 0.989201 0.740979
vt 0.889028 0.475403
vt 0.981345 0.745766
vt 0.986600 0.741997
vt 0.957142 0.571031
vt 0.963084 0.573827
vt 0.934582 0.413865
vt 0.965697 0.575046
vt 0.947926 0.620762
vt 0.943223 0.478595
vt 0.127371 0.030529
vt 0.092109 0.076762
vt 0.950489 0.622050
vt 0.958429 0.675727
vt 0.878726 0.479354
vt 0.159907 0.050692
vt 0.129421 0.099885
vt 0.073227 0.121561
vt 0.961077 0.674597
vt 0.959393 0.392433
vt 0.126151 0.127951
vt 0.089192 0.123133
vt 0.965677 0.394691
vt 0.159485 0.142527
vt 0.122880 0.156016
vt 0.086276 0.169505
vt 0.121049 0.233108
vt 0.920224 0.259660
vt 0.154779 0.215012
vt 0.918156 0.276261
vt 0.964027 0.413626
vt 0.955640 0.213426
vt 0.954856 0.257086
vt 0.978358 0.474257
vt 0.954432 0.280712
vt 0.947899 0.330262
vt 0.953600 0.327105
vt 0.962781 0.257704
vt 0.701309 0.526346
vt 0.962373 0.280477
vt 0.686615 0.506954
vt 0.961570 0.325199
vt 0.561669 0.693021
vt 0.528456 0.477014
vt 0.984404 0.754161
vt 0.686436 0.682680
vt 0.967622 0.547195
vt 0.720937 0.513937
vt 0.704685 0.491830
vt 0.667777 0.453400
vt 0.743482 0.581419
vt 0.963537 0.215616
vt 0.746419 0.558848
vt 0.940688 0.616279
vt 0.952462 0.678409
vt 0.955642 0.368370
vt 0.966673 0.412582
vt 0.968277 0.395831
vt 0.950056 0.210067
vt 0.989420 0.321058
vt 0.983493 0.315288
vt 0.957003 0.623879
vt 0.967416 0.672197
vt 0.971862 0.577820
vt 0.161957 0.120048
vt 0.957586 0.415517
vt 0.995711 0.739807
vt 0.188509 0.196917
vt 1.000000 0.526016
vt 0.192443 0.070855
vn 0.683896 0.603553 0.409891
vn 0.683896 0.603553 0.409891
vn 0.683896 0.603553 0.409891
vn 0.683896 0.603553 0.409891
vn 0.866025 0.000004 -0.500000
vn 0.866025 0.000001 -0.500000
vn 0.866025 0.000001 -0.500000
vn 0.000000 0.447215 -0.894427
vn 0.000000 0.447215 -0.894427
vn 0.000000 0.447214 -0.894427
vn 0.000000 0.447214 -0.894427
vn 0.866025 0.000000 -0.500000
vn 0.866025 0.000000 -0.500000
vn 0.866025 0.000000 -0.500000
vn 0.866025 0.000000 -0.500000
vn 0.000000 0.000000 -1.000000
vn 0.000000 0.000000 -1.000000
vn 0.000000 0.000000 -1.000000
vn 0.000000 0.000000 -1.000000
vn 0.866025 0.000000 0.500000
vn 0.866025 0.000000 0.500000
vn 0.866025 0.000000 0.500000
vn 0.866025 0.000000 0.500000
vn 0.000000 1.000000 -0.000000
vn 0.000000 1.000000 0.000000
vn -0.000000 1.000000 0.000000
vn 0.866025 0.000000 -0.500000
vn 0.866025 0.000000 -0.500000
vn 0.866025 0.000000 -0.500000
vn 0.866025 0.000000 -0.500000
vn 0.866025 0.000000 -0.500000
vn 0.866025 0.000000 -0.500000
vn 0.000000 1.000000 0.000000
vn 0.000000 1.000000 0.000000
vn 0.000000 1.000000 0.000000
vn 0.000000 1.000000 0.000000
vn 0.000000 1.000000 0.000000
vn 0.000000 1.000000 0.000000
vn 0.000000 1.000000 0.000000
vn 0.000000 1.000000 0.000000
vn 0.866026 0.000001 -0.499999
vn 0.866025 0.000002 -0.500000
vn 0.866025 0.000000 -0.500000
vn 0.026500 0.998595 0.045899
vn 0.384251 0.639847 0.665543
vn 0.384251 0.639847 0.665543
vn 0.037046 0.997251 0.064166
vn -0.097088 0.985956 -0.135884
vn -0.451028 0.630941 -0.631259
vn -0.368732 0.648951 -0.665507
vn -0.063729 0.991368 -0.114581
vn 0.000000 1.000000 0.000000
vn 0.000000 1.000000 0.000000
vn -0.498448 0.514653 -0.697626
vn -0.413721 0.516358 -0.749806
vn 0.428164 0.516431 0.741603
vn 0.428164 0.516431 0.741603
vn 0.866025 0.000000 -0.500000
vn 0.866025 0.000000 -0.500000
vn 0.866025 0.000002 -0.500000
vn 0.866025 -0.000003 -0.500000
vn -0.035788 0.997415 0.062304
vn -0.382847 0.639682 0.666509
vn -0.382711 0.640010 0.666273
vn -0.028589 0.998351 0.049771
vn 0.077225 0.988324 -0.131344
vn 0.325659 0.624788 -0.709638
vn 0.389764 0.639249 -0.662906
vn 0.078264 0.988006 -0.133111
vn 0.000000 1.000000 -0.000000
vn 0.000000 1.000000 -0.000000
vn 0.360210 0.490663 -0.793410
vn 0.434030 0.516419 -0.738193
vn -0.426524 0.516429 0.742549
vn -0.426524 0.516429 0.742549
vn -0.866026 0.000000 -0.500000
vn -0.866026 0.000000 -0.500000
vn -0.866026 0.000000 -0.500000
vn -0.866026 0.000000 -0.500000
vn -0.683896 0.603553 0.409890
vn -0.683896 0.603553 0.409890
vn -0.683896 0.603553 0.409890
vn -0.683896 0.603553 0.409890
vn -0.866026 0.000000 0.500000
vn -0.866026 0.000000 0.500000
vn -0.866026 0.000000 0.500000
vn -0.866026 0.000000 0.500000
vn 0.000000 0.000000 1.000000
vn 0.000000 0.000000 1.000000
vn 0.000000 0.000000 1.000000
vn 0.000000 0.000000 1.000000
vn -0.866026 0.000000 -0.500000
vn -0.866025 0.000000 -0.500000
vn -0.866026 0.000000 -0.499999
vn -0.866026 0.000000 -0.499999
vn -0.866025 0.000000 -0.500000
vn -0.866025 0.000000 -0.500000
vn -0.866026 0.000001 -0.499999
vn -0.866025 -0.000000 -0.500000
vn -0.866025 -0.000001 -0.500000
vn -0.866026 0.000001 -0.499999
vn -0.866024 -0.000002 -0.500002
vn 0.000000 1.000000 0.000000
vn 0.000000 1.000000 0.000000
vn 0.000000 1.000000 0.000000
vn 0.075111 0.461633 0.883886
vn 0.075111 0.461633 0.883886
vn 0.075111 0.461633 0.883886
vn 0.075111 0.461633 0.883886
vn 0.054010 0.836432 0.545403
vn 0.054010 0.836432 0.545403
vn 0.054010 0.836432 0.545403
vn 0.054010 0.836432 0.545403
vn 0.000000 1.000000 -0.000000
vn 0.000000 1.000000 0.000000
vn 0.000000 1.000000 0.000000
vn 0.000000 1.000000 -0.000000
vn -0.041304 0.649239 -0.759462
vn -0.013819 0.994554 -0.103300
vn -0.000000 1.000000 0.000001
vn 0.012821 0.495268 -0.868645
vn 0.033193 0.992321 -0.119153
vn 0.000000 1.000000 0.000000
vn -0.000000 0.707107 0.707106
vn -0.000000 0.707107 0.707106
vn -0.000000 0.707107 0.707106
vn -0.000000 0.707107 0.707106
vn -0.000001 1.000000 -0.000000
vn -0.000001 1.000000 -0.000000
vn -0.000001 1.000000 -0.000000
vn 0.000000 1.000000 -0.000000
vn 0.000000 1.000000 -0.000000
vn 0.000000 1.000000 -0.000000
vn 0.000000 1.000000 -0.000000
vn -0.866026 -0.000002 -0.499998
vn -0.866025 0.000001 -0.500001
vn -0.866024 0.000010 -0.500003
vn -0.866029 -0.000006 -0.499994
vn -0.866026 -0.000002 -0.500000
vn 0.000000 1.000000 0.000000
vn 0.000000 1.000000 -0.000000
vn 0.000000 1.000000 0.000000
vn 0.000000 1.000000 0.000000
vn 0.000000 1.000000 -0.000000
vn 0.000000 1.000000 -0.000000
vn 0.000000 1.000000 -0.000000
vn -0.000000 0.000000 -1.000000
vn -0.000000 0.000000 -1.000000
vn -0.000000 0.000000 -1.000000
vn -0.000000 0.000000 -1.000000
vn 0.000000 0.447213 -0.894428
vn 0.000000 0.447213 -0.894428
vn 0.000000 0.447212 -0.894428
vn 0.000000 0.447212 -0.894428
vn 0.000000 1.000000 0.000000
vn 0.000000 1.000000 0.000000
vn 0.000000 1.000000 0.000000
vn 0.000000 1.000000 0.000000
vn 0.000000 1.000000 0.000000
vn 0.000000 1.000000 0.000000
vn 0.000000 1.000000 0.000000
vn 0.000000 1.000000 0.000000
s off
g curve tracks uv_done_textures_needed og
usemtl lambert3SG
f 5/95/1 6/94/2 12/18/3 11/14/4
s 1
f 27/16/5 5/10/6 28/12/7
s 2
f 8/66/8 7/86/9 63/72/10 64/67/11
s 3
f 1/9/12 19/6/13 20/5/14 5/80/15
s 4
f 2/7/16 62/73/17 63/82/18 7/87/19
s off
f 4/13/20 1/9/21 5/80/22 11/77/23
s 5
f 12/18/24 6/94/25 13/90/26
s 3
f 17/85/27 18/3/28 2/7/29 7/87/30
f 16/1/31 15/2/32 18/3/28 17/85/27
f 20/5/14 19/6/13 15/2/32 16/1/31
s off
f 20/45/33 16/50/34 22/51/35 23/46/36
f 16/50/37 17/104/38 21/99/39 22/51/40
s 7
f 26/15/41 25/11/42 7/8/43
s 8
f 14/92/44 24/57/45 25/11/46 26/15/47
s 5
f 27/16/48 28/12/49 30/42/50 29/40/51
f 13/39/26 6/17/25 27/16/48 29/40/51
s 8
f 14/62/44 26/93/47 8/66/52 64/67/53
s 5
f 30/42/50 28/12/49 20/103/54 23/98/55
s 8
f 25/11/46 24/57/45 21/54/56 17/4/57
s 1
f 6/17/58 5/10/6 27/16/5
f 28/12/7 5/10/6 20/103/59
s 7
f 7/8/43 25/11/42 17/4/60
f 26/15/41 7/8/43 8/19/61
s 8
f 38/29/62 39/26/63 40/65/64 41/91/65
s 5
f 42/48/66 43/53/67 45/35/68 44/38/69
f 32/37/70 31/89/71 42/48/66 44/38/69
f 45/35/68 43/53/67 34/97/72 37/101/73
s 8
f 40/65/64 39/26/63 35/68/74 33/100/75
s 12
f 9/84/76 3/21/77 53/22/78 35/23/79
s off
f 50/49/80 46/36/81 32/81/82 49/31/83
f 47/30/84 48/33/85 50/34/86 49/78/87
f 48/33/88 4/13/89 11/77/90 50/34/91
s 12
f 37/28/92 52/27/93 47/30/94 49/78/95
f 36/25/96 51/24/97 52/27/93 37/28/92
f 35/23/79 53/22/78 51/24/97 36/25/96
s 14
f 45/35/98 49/79/99 44/38/100
f 37/101/101 49/79/99 45/35/98
f 44/38/100 49/79/99 32/37/102
s off
f 31/44/103 32/81/104 46/36/105
f 21/54/106 24/57/107 40/65/108 33/100/109
f 24/57/110 14/92/111 41/91/112 40/65/113
s 15
f 22/51/114 21/99/115 33/58/116 65/55/117
s 5
f 29/40/51 30/42/50 54/47/118 55/43/119
f 13/39/26 29/40/51 55/43/119 56/88/120
f 30/42/50 23/98/55 57/96/121 54/47/118
f 55/43/119 54/47/118 43/53/67 42/48/122
f 56/88/120 55/43/119 42/48/122 31/89/123
f 54/47/118 57/96/121 34/97/72 43/53/67
s off
f 11/14/124 12/18/125 46/36/126 50/49/127
f 13/90/128 56/41/129 12/18/130
f 56/41/131 31/44/132 46/36/133 12/18/134
s 16
f 9/20/135 39/26/136 38/29/137
f 9/20/135 38/29/137 10/32/138
f 35/68/139 39/26/136 9/20/135
s 15
f 36/63/140 58/59/141 33/58/116 35/102/142
f 36/63/140 37/61/143 34/60/144 58/59/141
f 22/51/114 65/55/117 66/56/145 23/46/146
s 4
f 60/83/147 59/75/148 3/21/149 9/84/150
s 2
f 61/69/151 60/74/152 9/76/153 10/71/154
s 4
f 63/82/18 62/73/17 59/75/148 60/83/147
s 2
f 64/67/11 63/72/10 60/74/152 61/69/151
s 8
f 41/64/65 61/69/155 10/71/156 38/70/62
f 14/62/44 64/67/53 61/69/155 41/64/65
s 15
f 65/55/117 33/58/116 58/59/141
f 66/56/145 65/55/117 58/59/141 34/60/144
s off
f 57/52/157 23/46/158 66/56/159
f 34/60/160 57/52/161 66/56/162
