# This file uses centimeters as units for non-parametric coordinates.

mtllib leer.mtl
g default
v 0.500000 0.000000 -0.866025
v -0.500000 0.000000 -0.866025
v -1.000000 0.000000 -0.000000
v -0.500000 0.000000 0.866025
v 0.500000 0.000000 0.866025
v 1.000000 0.000000 0.000000
v 0.000000 0.277710 0.000000
v 0.500000 0.212955 -0.866025
v 0.462614 0.277710 -0.801270
v -0.500000 0.212955 -0.866025
v -0.462614 0.277710 -0.801271
v -1.000000 0.212955 -0.000000
v -0.925228 0.277710 -0.000000
v -0.500000 0.212955 0.866025
v -0.462614 0.277710 0.801271
v 0.500000 0.212955 0.866025
v 0.462614 0.277710 0.801271
v 1.000000 0.212955 0.000000
v 0.925228 0.277710 0.000000
vt 0.102409 0.263621
vt 0.000000 0.177302
vt 0.021507 0.168930
vt 0.105872 0.240838
vt 0.803563 0.823235
vt 0.725920 0.757641
vt 0.228151 0.217838
vt 0.210137 0.203409
vt 0.899191 0.788792
vt 0.023287 0.045479
vt 0.149222 0.000021
vt 0.145706 0.022831
vt 0.735421 0.650323
vt 0.251710 0.086048
vt 0.230242 0.094427
vt 0.743905 0.657603
vt 0.839533 0.623159
vt 0.917176 0.688754
vt 0.821548 0.723197
vt 0.715373 0.761348
vt 0.041267 0.059896
vt 0.841595 0.612172
vt 0.801500 0.834223
vt 0.907675 0.796071
vt 0.927722 0.685046
vn 0.612373 0.707107 -0.353553
vn 0.612373 0.707107 -0.353553
vn 0.612373 0.707107 -0.353553
vn 0.612373 0.707107 -0.353553
vn 0.000000 0.707107 -0.707107
vn 0.000000 0.707107 -0.707107
vn 0.000000 0.707107 -0.707107
vn 0.000000 0.707107 -0.707107
vn -0.612372 0.707107 -0.353554
vn -0.612372 0.707107 -0.353554
vn -0.612372 0.707107 -0.353554
vn -0.612372 0.707107 -0.353554
vn -0.612373 0.707107 0.353553
vn -0.612373 0.707107 0.353553
vn -0.612373 0.707107 0.353553
vn -0.612373 0.707107 0.353553
vn 0.612373 0.707107 0.353554
vn 0.612373 0.707107 0.353554
vn 0.612373 0.707107 0.353554
vn 0.612373 0.707107 0.353554
vn 0.000000 0.000000 -1.000000
vn 0.000000 0.000000 -1.000000
vn 0.000000 0.000000 -1.000000
vn 0.000000 0.000000 -1.000000
vn -0.866025 0.000000 -0.500000
vn -0.866025 0.000000 -0.500000
vn -0.866025 0.000000 -0.500000
vn -0.866025 0.000000 -0.500000
vn -0.866026 0.000000 0.500000
vn -0.866026 0.000000 0.500000
vn -0.866026 0.000000 0.500000
vn -0.866026 0.000000 0.500000
vn 0.866026 0.000000 0.500000
vn 0.866026 0.000000 0.500000
vn 0.866026 0.000000 0.500000
vn 0.866026 0.000000 0.500000
vn 0.866026 0.000000 -0.500000
vn 0.866026 0.000000 -0.500000
vn 0.866026 0.000000 -0.500000
vn 0.866026 0.000000 -0.500000
vn 0.000000 1.000000 0.000000
vn 0.000000 1.000000 0.000000
vn 0.000000 1.000000 0.000000
vn 0.000000 1.000000 0.000000
vn 0.000000 1.000000 0.000000
vn 0.000000 1.000000 0.000000
vn 0.000000 1.000000 0.000000
vn 0.000000 0.000000 1.000000
vn 0.000000 0.000000 1.000000
vn 0.000000 0.000000 1.000000
vn 0.000000 0.000000 1.000000
vn 0.000000 0.707107 0.707107
vn 0.000000 0.707107 0.707107
vn 0.000000 0.707107 0.707107
vn 0.000000 0.707107 0.707107
s off
g leer tracks uv_done_textures_needed og
usemtl lambert3SG
f 8/25/1 9/18/2 19/17/3 18/22/4
f 9/18/5 8/25/6 10/24/7 11/9/8
f 11/9/9 10/24/10 12/23/11 13/5/12
f 13/5/13 12/23/14 14/20/15 15/6/16
f 17/16/17 16/13/18 18/22/19 19/17/20
f 1/14/21 2/7/22 10/8/23 8/15/24
f 2/7/25 3/1/26 12/4/27 10/8/28
f 3/1/29 4/2/30 14/3/31 12/4/32
f 5/10/33 6/11/34 18/12/35 16/21/36
f 6/11/37 1/14/38 8/15/39 18/12/40
s 1
f 9/18/41 11/9/42 7/19/43
f 11/9/42 13/5/44 7/19/43
f 13/5/44 15/6/45 7/19/43
f 17/16/46 7/19/43 15/6/45
f 17/16/46 19/17/47 7/19/43
f 19/17/47 9/18/41 7/19/43
s off
f 4/2/48 5/10/49 16/21/50 14/3/51
f 16/13/52 17/16/53 15/6/54 14/20/55
