# This file uses centimeters as units for non-parametric coordinates.

mtllib reifen.mtl
g default
v 0.143514 0.000000 -0.046631
v 0.122081 0.000000 -0.088697
v 0.088697 0.000000 -0.122080
v 0.046631 0.000000 -0.143514
v -0.000000 0.000000 -0.150900
v -0.046631 0.000000 -0.143514
v -0.088697 0.000000 -0.122080
v -0.122080 0.000000 -0.088697
v -0.143514 0.000000 -0.046631
v -0.150900 0.000000 0.000000
v -0.143514 0.000000 0.046631
v -0.122080 0.000000 0.088697
v -0.088697 0.000000 0.122080
v -0.046631 0.000000 0.143514
v -0.000000 0.000000 0.150900
v 0.046631 0.000000 0.143514
v 0.088697 0.000000 0.122080
v 0.122080 0.000000 0.088697
v 0.143514 0.000000 0.046631
v 0.150900 0.000000 0.000000
v 0.143514 0.069066 -0.046631
v 0.122081 0.069066 -0.088697
v 0.088697 0.069066 -0.122080
v 0.046631 0.069066 -0.143514
v -0.000000 0.069066 -0.150900
v -0.046631 0.069066 -0.143514
v -0.088697 0.069066 -0.122080
v -0.122080 0.069066 -0.088697
v -0.143514 0.069066 -0.046631
v -0.150900 0.069066 0.000000
v -0.143514 0.069066 0.046631
v -0.122080 0.069066 0.088697
v -0.088697 0.069066 0.122080
v -0.046631 0.069066 0.143514
v -0.000000 0.069066 0.150900
v 0.046631 0.069066 0.143514
v 0.088697 0.069066 0.122080
v 0.122080 0.069066 0.088697
v 0.143514 0.069066 0.046631
v 0.150900 0.069066 0.000000
v 0.081440 0.069066 -0.026461
v 0.069277 0.069066 -0.050333
v 0.050333 0.069066 -0.069277
v 0.026461 0.069066 -0.081440
v -0.000000 0.069066 -0.085631
v -0.026461 0.069066 -0.081440
v -0.050333 0.069066 -0.069277
v -0.069277 0.069066 -0.050333
v -0.081440 0.069066 -0.026461
v -0.085631 0.069066 0.000000
v -0.081440 0.069066 0.026461
v -0.069277 0.069066 0.050333
v -0.050333 0.069066 0.069277
v -0.026461 0.069066 0.081440
v -0.000000 0.069066 0.085631
v 0.026461 0.069066 0.081440
v 0.050333 0.069066 0.069277
v 0.069277 0.069066 0.050333
v 0.081440 0.069066 0.026461
v 0.085631 0.069066 0.000000
v 0.075460 0.008594 -0.024518
v 0.064190 0.008594 -0.046637
v 0.046637 0.008594 -0.064190
v 0.024518 0.008594 -0.075460
v -0.000000 0.008594 -0.079343
v -0.024518 0.008594 -0.075460
v -0.046637 0.008594 -0.064190
v -0.064190 0.008594 -0.046637
v -0.075460 0.008594 -0.024518
v -0.079343 0.008594 0.000000
v -0.075460 0.008594 0.024518
v -0.064190 0.008594 0.046637
v -0.046637 0.008594 0.064190
v -0.024518 0.008594 0.075460
v -0.000000 0.008594 0.079343
v 0.024518 0.008594 0.075460
v 0.046637 0.008594 0.064190
v 0.064190 0.008594 0.046637
v 0.075460 0.008594 0.024518
v 0.079343 0.008594 0.000000
v 0.150830 0.034533 -0.049008
v 0.158592 0.034533 0.000000
v 0.150830 0.034533 0.049008
v 0.128304 0.034533 0.093218
v 0.093218 0.034533 0.128304
v 0.049008 0.034533 0.150830
v -0.000000 0.034533 0.158592
v -0.049008 0.034533 0.150830
v -0.093218 0.034533 0.128304
v -0.128304 0.034533 0.093218
v -0.150830 0.034533 0.049008
v -0.158592 0.034533 0.000000
v -0.150830 0.034533 -0.049008
v -0.128304 0.034533 -0.093218
v -0.093218 0.034533 -0.128304
v -0.049008 0.034533 -0.150830
v -0.000000 0.034533 -0.158592
v 0.049008 0.034533 -0.150830
v 0.093218 0.034533 -0.128304
v 0.128304 0.034533 -0.093218
v 0.150830 0.052679 -0.049008
v 0.158592 0.052679 0.000000
v 0.150830 0.052679 0.049008
v 0.128304 0.052679 0.093218
v 0.093218 0.052679 0.128304
v 0.049008 0.052679 0.150830
v -0.000000 0.052679 0.158592
v -0.049008 0.052679 0.150830
v -0.093218 0.052679 0.128304
v -0.128304 0.052679 0.093218
v -0.150830 0.052679 0.049008
v -0.158592 0.052679 0.000000
v -0.150830 0.052679 -0.049008
v -0.128304 0.052679 -0.093218
v -0.093218 0.052679 -0.128304
v -0.049008 0.052679 -0.150830
v -0.000000 0.052679 -0.158592
v 0.049008 0.052679 -0.150830
v 0.093218 0.052679 -0.128304
v 0.128304 0.052679 -0.093218
v 0.150830 0.016386 -0.049008
v 0.158592 0.016386 0.000000
v 0.150830 0.016386 0.049008
v 0.128304 0.016386 0.093218
v 0.093218 0.016386 0.128304
v 0.049008 0.016386 0.150830
v -0.000000 0.016386 0.158592
v -0.049008 0.016386 0.150830
v -0.093218 0.016386 0.128304
v -0.128304 0.016386 0.093218
v -0.150830 0.016386 0.049008
v -0.158592 0.016386 0.000000
v -0.150830 0.016386 -0.049008
v -0.128304 0.016386 -0.093218
v -0.093218 0.016386 -0.128304
v -0.049008 0.016386 -0.150830
v -0.000000 0.016386 -0.158592
v 0.049008 0.016386 -0.150830
v 0.093218 0.016386 -0.128304
v 0.128304 0.016386 -0.093218
vt 0.477785 0.469153
vt 0.463920 0.480458
vt 0.458780 0.475901
vt 0.474308 0.463231
vt 0.454231 0.495497
vt 0.447933 0.492756
vt 0.453654 0.471341
vt 0.470841 0.457311
vt 0.494476 0.462681
vt 0.492988 0.455979
vt 0.441647 0.490007
vt 0.448458 0.466722
vt 0.467325 0.451312
vt 0.491510 0.449278
vt 0.512351 0.461650
vt 0.512989 0.454814
vt 0.435277 0.487222
vt 0.443239 0.462029
vt 0.463811 0.445236
vt 0.490012 0.442487
vt 0.513644 0.447986
vt 0.529655 0.466190
vt 0.532377 0.459884
vt 0.428862 0.484374
vt 0.488538 0.435623
vt 0.514309 0.441065
vt 0.535109 0.453591
vt 0.544707 0.475858
vt 0.549249 0.470705
vt 0.515018 0.434082
vt 0.537877 0.447214
vt 0.553794 0.465566
vt 0.540707 0.440792
vt 0.558400 0.460358
vt 0.563077 0.455126
vt 0.483545 0.570913
vt 0.500862 0.575474
vt 0.500211 0.582309
vt 0.480815 0.577212
vt 0.518742 0.574461
vt 0.520232 0.581162
vt 0.499548 0.589135
vt 0.478076 0.583501
vt 0.468486 0.561224
vt 0.463943 0.566372
vt 0.535433 0.567971
vt 0.538919 0.573885
vt 0.521709 0.587860
vt 0.498876 0.596055
vt 0.475300 0.589874
vt 0.459395 0.571507
vt 0.549301 0.556641
vt 0.554444 0.561190
vt 0.542392 0.579800
vt 0.523207 0.594649
vt 0.498158 0.603036
vt 0.472461 0.596293
vt 0.454785 0.576711
vt 0.558988 0.541580
vt 0.565285 0.544318
vt 0.559574 0.565743
vt 0.545914 0.585794
vt 0.524681 0.601510
vt 0.450102 0.581938
vt 0.571571 0.547063
vt 0.564774 0.570356
vt 0.549435 0.591865
vt 0.577943 0.549843
vt 0.569999 0.575042
vt 0.584360 0.552685
vt 0.415310 0.331668
vt 0.429902 0.337979
vt 0.418717 0.356412
vt 0.410344 0.352661
vt 0.441848 0.348500
vt 0.425518 0.362573
vt 0.399506 0.330155
vt 0.401217 0.351686
vt 0.383988 0.333569
vt 0.392227 0.353513
vt 0.370264 0.341608
vt 0.384246 0.358032
vt 0.359687 0.353507
vt 0.378053 0.364803
vt 0.434991 0.420224
vt 0.421250 0.428314
vt 0.412985 0.408414
vt 0.420976 0.403856
vt 0.405682 0.431759
vt 0.403975 0.410279
vt 0.445559 0.408281
vt 0.427165 0.397051
vt 0.389814 0.430223
vt 0.394829 0.409268
vt 0.375197 0.423857
vt 0.386445 0.405478
vt 0.363263 0.413284
vt 0.379645 0.399284
vt 0.879331 0.621839
vt 0.896032 0.630348
vt 0.880801 0.651312
vt 0.871324 0.646483
vt 0.909285 0.643602
vt 0.888322 0.658833
vt 0.860819 0.618907
vt 0.860819 0.644819
vt 0.917794 0.660302
vt 0.893151 0.668310
vt 0.842306 0.621839
vt 0.850313 0.646483
vt 0.920727 0.678815
vt 0.894814 0.678815
vt 0.825606 0.630348
vt 0.840837 0.651312
vt 0.917794 0.697327
vt 0.893151 0.689320
vt 0.812352 0.643602
vt 0.833316 0.658833
vt 0.909285 0.714028
vt 0.888322 0.698797
vt 0.803843 0.660302
vt 0.828487 0.668310
vt 0.896032 0.727281
vt 0.880801 0.706318
vt 0.800911 0.678815
vt 0.826823 0.678815
vt 0.879331 0.735791
vt 0.871324 0.711147
vt 0.803843 0.697327
vt 0.828487 0.689320
vt 0.860819 0.738723
vt 0.860819 0.712811
vt 0.812352 0.714028
vt 0.833316 0.698797
vt 0.842306 0.735791
vt 0.850313 0.711147
vt 0.825606 0.727281
vt 0.840837 0.706318
vt 0.626013 0.725118
vt 0.644578 0.722197
vt 0.644556 0.750790
vt 0.634828 0.752318
vt 0.663137 0.725156
vt 0.654280 0.752343
vt 0.609259 0.733633
vt 0.626048 0.756778
vt 0.679873 0.733706
vt 0.663048 0.756825
vt 0.595957 0.746908
vt 0.619076 0.763732
vt 0.693148 0.747008
vt 0.670003 0.763797
vt 0.587408 0.763644
vt 0.614594 0.772500
vt 0.701662 0.763762
vt 0.674462 0.772576
vt 0.584449 0.782202
vt 0.613041 0.782225
vt 0.704583 0.782327
vt 0.675990 0.782305
vt 0.587369 0.800767
vt 0.614569 0.791953
vt 0.701624 0.800885
vt 0.674437 0.792029
vt 0.595884 0.817521
vt 0.619029 0.800732
vt 0.693075 0.817621
vt 0.669955 0.800797
vt 0.609159 0.830823
vt 0.625983 0.807704
vt 0.679772 0.830896
vt 0.662984 0.807751
vt 0.625895 0.839373
vt 0.634752 0.812186
vt 0.663019 0.839411
vt 0.654204 0.812211
vt 0.644454 0.842332
vt 0.644476 0.813739
vt 0.449667 0.512798
vt 0.442829 0.512143
vt 0.450675 0.530669
vt 0.443972 0.532162
vt 0.436002 0.511476
vt 0.457159 0.547356
vt 0.451248 0.550849
vt 0.437273 0.533640
vt 0.429082 0.510799
vt 0.445335 0.554326
vt 0.430484 0.535138
vt 0.422102 0.510077
vt 0.439342 0.557850
vt 0.423623 0.536612
vt 0.433273 0.561374
vt 0.563545 0.524264
vt 0.570380 0.524921
vt 0.562527 0.506390
vt 0.569231 0.504900
vt 0.577208 0.525589
vt 0.556034 0.489710
vt 0.561949 0.486217
vt 0.575930 0.503423
vt 0.584127 0.526263
vt 0.567862 0.482739
vt 0.582719 0.501923
vt 0.591108 0.526981
vt 0.573853 0.479212
vt 0.589580 0.500447
vt 0.579921 0.475685
vt 0.449960 0.362215
vt 0.430078 0.370541
vt 0.453431 0.377776
vt 0.431950 0.379534
vt 0.451914 0.393652
vt 0.430946 0.388670
vt 0.355184 0.399539
vt 0.375094 0.391294
vt 0.351751 0.383969
vt 0.373239 0.382292
vt 0.353304 0.368105
vt 0.374259 0.373162
vn 0.860909 -0.424958 -0.279725
vn 0.732333 -0.424958 -0.532071
vn 0.790969 -0.210046 -0.574673
vn 0.929840 -0.210046 -0.302122
vn 0.532071 -0.424958 -0.732333
vn 0.574673 -0.210046 -0.790969
vn 0.279726 -0.424958 -0.860909
vn 0.302123 -0.210046 -0.929840
vn 0.000000 -0.424958 -0.905213
vn 0.000000 -0.210046 -0.977692
vn -0.279726 -0.424958 -0.860909
vn -0.302123 -0.210046 -0.929840
vn -0.532071 -0.424957 -0.732333
vn -0.574673 -0.210046 -0.790969
vn -0.732333 -0.424957 -0.532071
vn -0.790969 -0.210046 -0.574672
vn -0.860909 -0.424957 -0.279726
vn -0.929840 -0.210046 -0.302123
vn -0.905213 -0.424957 -0.000000
vn -0.977692 -0.210046 -0.000000
vn -0.860909 -0.424957 0.279726
vn -0.929840 -0.210046 0.302123
vn -0.732333 -0.424957 0.532071
vn -0.790969 -0.210046 0.574673
vn -0.532071 -0.424957 0.732333
vn -0.574673 -0.210046 0.790969
vn -0.279727 -0.424958 0.860909
vn -0.302123 -0.210046 0.929840
vn 0.000000 -0.424958 0.905213
vn 0.000000 -0.210046 0.977691
vn 0.279727 -0.424958 0.860909
vn 0.302124 -0.210047 0.929840
vn 0.532071 -0.424958 0.732333
vn 0.574673 -0.210046 0.790969
vn 0.732333 -0.424957 0.532072
vn 0.790969 -0.210046 0.574673
vn 0.860909 -0.424958 0.279726
vn 0.929840 -0.210046 0.302123
vn 0.905213 -0.424958 0.000001
vn 0.977691 -0.210046 0.000001
vn 0.000000 1.000000 0.000001
vn 0.000000 1.000000 0.000000
vn 0.000000 1.000000 0.000000
vn 0.000000 1.000000 0.000001
vn 0.000000 1.000000 -0.000001
vn 0.000000 1.000000 -0.000001
vn 0.000000 1.000000 -0.000000
vn 0.000000 1.000000 -0.000000
vn 0.000000 1.000000 0.000000
vn 0.000000 1.000000 0.000000
vn 0.000000 1.000000 -0.000000
vn 0.000000 1.000000 -0.000000
vn 0.000000 1.000000 -0.000001
vn 0.000000 1.000000 -0.000001
vn 0.000000 1.000000 -0.000000
vn 0.000000 1.000000 -0.000000
vn 0.000000 1.000000 0.000001
vn 0.000000 1.000000 0.000001
vn 0.000000 1.000000 -0.000000
vn 0.000000 1.000000 -0.000000
vn 0.000000 1.000000 -0.000002
vn 0.000000 1.000000 -0.000002
vn 0.000000 1.000000 -0.000001
vn 0.000000 1.000000 -0.000001
vn 0.000000 1.000000 0.000000
vn 0.000000 1.000000 0.000000
vn 0.000000 1.000000 0.000000
vn 0.000000 1.000000 0.000000
vn 0.000000 1.000000 0.000000
vn 0.000000 1.000000 0.000000
vn 0.000000 1.000000 -0.000000
vn 0.000000 1.000000 -0.000000
vn 0.000000 1.000000 -0.000000
vn 0.000000 1.000000 -0.000000
vn 0.000000 1.000000 0.000000
vn 0.000000 1.000000 0.000000
vn 0.000000 1.000000 -0.000001
vn 0.000000 1.000000 -0.000001
vn 0.000000 1.000000 0.000000
vn 0.000000 1.000000 -0.000000
vn -0.945958 0.103418 0.307358
vn -0.804679 0.103419 0.584634
vn -0.804679 0.103419 0.584634
vn -0.945958 0.103418 0.307358
vn -0.584633 0.103419 0.804679
vn -0.584633 0.103419 0.804679
vn -0.307360 0.103418 0.945957
vn -0.307360 0.103418 0.945957
vn 0.000000 0.103418 0.994638
vn 0.000000 0.103418 0.994638
vn 0.307360 0.103418 0.945957
vn 0.307360 0.103418 0.945957
vn 0.584633 0.103418 0.804679
vn 0.584633 0.103418 0.804679
vn 0.804679 0.103418 0.584634
vn 0.804679 0.103418 0.584634
vn 0.945957 0.103419 0.307360
vn 0.945957 0.103419 0.307360
vn 0.994638 0.103419 -0.000000
vn 0.994638 0.103419 -0.000000
vn 0.945957 0.103419 -0.307360
vn 0.945957 0.103419 -0.307360
vn 0.804679 0.103419 -0.584634
vn 0.804679 0.103419 -0.584634
vn 0.584633 0.103418 -0.804679
vn 0.584633 0.103418 -0.804679
vn 0.307360 0.103418 -0.945957
vn 0.307360 0.103418 -0.945957
vn 0.000000 0.103418 -0.994638
vn 0.000000 0.103418 -0.994638
vn -0.307360 0.103418 -0.945957
vn -0.307360 0.103418 -0.945957
vn -0.584633 0.103418 -0.804679
vn -0.584633 0.103418 -0.804679
vn -0.804679 0.103419 -0.584633
vn -0.804679 0.103419 -0.584633
vn -0.945957 0.103419 -0.307360
vn -0.945957 0.103419 -0.307360
vn -0.994638 0.103419 -0.000001
vn -0.994638 0.103419 -0.000001
vn 1.000000 0.000000 0.000001
vn 0.951057 0.000000 -0.309016
vn 0.929840 0.210046 -0.302122
vn 0.977692 0.210046 0.000001
vn 0.951057 0.000000 0.309017
vn 0.929840 0.210046 0.302123
vn 0.809017 0.000000 0.587785
vn 0.790969 0.210046 0.574672
vn 0.587785 0.000000 0.809017
vn 0.574672 0.210046 0.790970
vn 0.309017 0.000000 0.951057
vn 0.302123 0.210046 0.929840
vn 0.000000 0.000000 1.000000
vn 0.000000 0.210046 0.977692
vn -0.309017 0.000000 0.951057
vn -0.302123 0.210046 0.929840
vn -0.587785 0.000000 0.809017
vn -0.574673 0.210046 0.790969
vn -0.809017 0.000000 0.587785
vn -0.790969 0.210046 0.574673
vn -0.951057 0.000000 0.309017
vn -0.929840 0.210046 0.302123
vn -1.000000 0.000000 0.000000
vn -0.977692 0.210046 0.000000
vn -0.951057 0.000000 -0.309017
vn -0.929840 0.210046 -0.302123
vn -0.809017 0.000000 -0.587785
vn -0.790969 0.210046 -0.574673
vn -0.587786 0.000000 -0.809017
vn -0.574673 0.210046 -0.790969
vn -0.309017 0.000000 -0.951057
vn -0.302124 0.210046 -0.929840
vn 0.000000 0.000000 -1.000000
vn 0.000000 0.210046 -0.977692
vn 0.309017 0.000000 -0.951057
vn 0.302123 0.210046 -0.929840
vn 0.587786 0.000000 -0.809017
vn 0.574673 0.210046 -0.790969
vn 0.809017 0.000000 -0.587785
vn 0.790969 0.210046 -0.574673
vn 0.860910 0.424957 -0.279725
vn 0.905214 0.424956 0.000001
vn 0.860910 0.424956 0.279726
vn 0.732334 0.424956 0.532071
vn 0.532071 0.424956 0.732334
vn 0.279726 0.424956 0.860910
vn 0.000000 0.424957 0.905214
vn -0.279726 0.424956 0.860910
vn -0.532071 0.424956 0.732334
vn -0.732333 0.424956 0.532072
vn -0.860910 0.424956 0.279726
vn -0.905214 0.424956 0.000000
vn -0.860910 0.424956 -0.279726
vn -0.732334 0.424956 -0.532071
vn -0.532071 0.424956 -0.732333
vn -0.279727 0.424957 -0.860909
vn 0.000000 0.424957 -0.905214
vn 0.279727 0.424957 -0.860909
vn 0.532072 0.424957 -0.732333
vn 0.732333 0.424956 -0.532071
vn 0.018882 -0.992688 0.119218
vn 0.018882 -0.992689 0.119218
vn 0.018882 -0.992688 0.119218
vn 0.018882 -0.992688 0.119218
vn -0.018882 -0.992688 0.119219
vn -0.018882 -0.992688 0.119219
vn -0.018882 -0.992688 0.119219
vn -0.018882 -0.992688 0.119219
vn -0.054799 -0.992688 0.107549
vn -0.054799 -0.992688 0.107549
vn -0.054799 -0.992688 0.107549
vn -0.054799 -0.992688 0.107549
vn -0.085351 -0.992688 0.085351
vn -0.085351 -0.992688 0.085351
vn -0.085351 -0.992688 0.085351
vn -0.085351 -0.992688 0.085351
vn -0.107549 -0.992688 0.054798
vn -0.107549 -0.992688 0.054798
vn -0.107549 -0.992688 0.054798
vn -0.107549 -0.992688 0.054798
vn -0.119219 -0.992688 0.018883
vn -0.119219 -0.992688 0.018883
vn -0.119219 -0.992688 0.018883
vn -0.119219 -0.992688 0.018883
vn -0.119219 -0.992688 -0.018881
vn -0.119219 -0.992688 -0.018881
vn -0.119219 -0.992688 -0.018881
vn -0.119219 -0.992688 -0.018881
vn -0.107549 -0.992688 -0.054800
vn -0.107549 -0.992688 -0.054800
vn -0.107549 -0.992688 -0.054800
vn -0.107549 -0.992688 -0.054800
vn -0.085351 -0.992688 -0.085352
vn -0.085351 -0.992688 -0.085352
vn -0.085351 -0.992688 -0.085352
vn -0.085351 -0.992688 -0.085352
vn -0.054799 -0.992688 -0.107549
vn -0.054799 -0.992688 -0.107549
vn -0.054799 -0.992688 -0.107549
vn -0.054799 -0.992688 -0.107549
vn -0.018882 -0.992688 -0.119219
vn -0.018882 -0.992688 -0.119219
vn -0.018882 -0.992688 -0.119219
vn -0.018882 -0.992688 -0.119219
vn 0.018882 -0.992688 -0.119219
vn 0.018882 -0.992688 -0.119219
vn 0.018882 -0.992688 -0.119219
vn 0.018882 -0.992688 -0.119219
vn 0.054799 -0.992688 -0.107549
vn 0.054799 -0.992688 -0.107549
vn 0.054799 -0.992688 -0.107549
vn 0.054799 -0.992688 -0.107549
vn 0.085351 -0.992688 -0.085352
vn 0.085351 -0.992688 -0.085352
vn 0.085351 -0.992688 -0.085352
vn 0.085351 -0.992688 -0.085352
vn 0.107549 -0.992688 -0.054798
vn 0.107549 -0.992688 -0.054798
vn 0.107549 -0.992688 -0.054798
vn 0.107549 -0.992688 -0.054798
vn 0.119219 -0.992688 -0.018883
vn 0.119219 -0.992688 -0.018883
vn 0.119219 -0.992688 -0.018883
vn 0.119219 -0.992688 -0.018883
vn 0.119219 -0.992688 0.018883
vn 0.119219 -0.992688 0.018883
vn 0.119219 -0.992688 0.018883
vn 0.119219 -0.992688 0.018883
vn 0.107549 -0.992689 0.054797
vn 0.107549 -0.992689 0.054797
vn 0.107549 -0.992689 0.054797
vn 0.107549 -0.992689 0.054797
vn 0.085351 -0.992688 0.085352
vn 0.085351 -0.992688 0.085352
vn 0.085351 -0.992688 0.085352
vn 0.085351 -0.992688 0.085352
vn 0.054799 -0.992689 0.107548
vn 0.054799 -0.992689 0.107548
vn 0.054799 -0.992689 0.107548
vn 0.054799 -0.992689 0.107548
s 1
g reifen defends og
usemtl initialShadingGroup
f 1/1/1 2/2/2 140/3/3 121/4/4
f 2/2/2 3/5/5 139/6/6 140/3/3
f 3/5/5 4/179/7 138/180/8 139/6/6
f 4/179/7 5/181/9 137/182/10 138/180/8
f 5/181/9 6/184/11 136/185/12 137/182/10
f 6/184/11 7/44/13 135/45/14 136/185/12
f 7/44/13 8/36/15 134/39/16 135/45/14
f 8/36/15 9/37/17 133/38/18 134/39/16
f 9/37/17 10/40/19 132/41/20 133/38/18
f 10/40/19 11/46/21 131/47/22 132/41/20
f 11/46/21 12/52/23 130/53/24 131/47/22
f 12/52/23 13/59/25 129/60/26 130/53/24
f 13/59/25 14/194/27 128/195/28 129/60/26
f 14/194/27 15/196/29 127/197/30 128/195/28
f 15/196/29 16/199/31 126/200/32 127/197/30
f 16/199/31 17/28/33 125/29/34 126/200/32
f 17/28/33 18/22/35 124/23/36 125/29/34
f 18/22/35 19/15/37 123/16/38 124/23/36
f 19/15/37 20/9/39 122/10/40 123/16/38
f 20/9/39 1/1/1 121/4/4 122/10/40
s 2
f 21/99/41 22/100/42 42/101/43 41/102/44
f 22/100/42 23/103/45 43/104/46 42/101/43
f 23/103/45 24/107/47 44/108/48 43/104/46
f 24/107/47 25/111/49 45/112/50 44/108/48
f 25/111/49 26/115/51 46/116/52 45/112/50
f 26/115/51 27/119/53 47/120/54 46/116/52
f 27/119/53 28/123/55 48/124/56 47/120/54
f 28/123/55 29/127/57 49/128/58 48/124/56
f 29/127/57 30/131/59 50/132/60 49/128/58
f 30/131/59 31/135/61 51/136/62 50/132/60
f 31/135/61 32/137/63 52/138/64 51/136/62
f 32/137/63 33/133/65 53/134/66 52/138/64
f 33/133/65 34/129/67 54/130/68 53/134/66
f 34/129/67 35/125/69 55/126/70 54/130/68
f 35/125/69 36/121/71 56/122/72 55/126/70
f 36/121/71 37/117/73 57/118/74 56/122/72
f 37/117/73 38/113/75 58/114/76 57/118/74
f 38/113/75 39/109/77 59/110/78 58/114/76
f 39/109/77 40/105/79 60/106/80 59/110/78
f 40/105/79 21/99/41 41/102/44 60/106/80
s 3
f 41/71/81 42/72/82 62/73/83 61/74/84
f 42/72/82 43/75/85 63/76/86 62/73/83
f 43/75/85 44/209/87 64/210/88 63/76/86
f 44/209/87 45/211/89 65/212/90 64/210/88
f 45/211/89 46/213/91 66/214/92 65/212/90
f 46/213/91 47/91/93 67/92/94 66/214/92
f 47/91/93 48/85/95 68/88/96 67/92/94
f 48/85/95 49/86/97 69/87/98 68/88/96
f 49/86/97 50/89/99 70/90/100 69/87/98
f 50/89/99 51/93/101 71/94/102 70/90/100
f 51/93/101 52/95/103 72/96/104 71/94/102
f 52/95/103 53/97/105 73/98/106 72/96/104
f 53/97/105 54/215/107 74/216/108 73/98/106
f 54/215/107 55/217/109 75/218/110 74/216/108
f 55/217/109 56/219/111 76/220/112 75/218/110
f 56/219/111 57/83/113 77/84/114 76/220/112
f 57/83/113 58/81/115 78/82/116 77/84/114
f 58/81/115 59/79/117 79/80/118 78/82/116
f 59/79/117 60/77/119 80/78/120 79/80/118
f 60/77/119 41/71/81 61/74/84 80/78/120
s 1
f 82/14/121 81/8/122 101/13/123 102/20/124
f 83/21/125 82/14/121 102/20/124 103/26/126
f 84/27/127 83/21/125 103/26/126 104/31/128
f 85/32/129 84/27/127 104/31/128 105/34/130
f 86/203/131 85/32/129 105/34/130 106/206/132
f 87/201/133 86/203/131 106/206/132 107/204/134
f 88/198/135 87/201/133 107/204/134 108/202/136
f 89/65/137 88/198/135 108/202/136 109/68/138
f 90/61/139 89/65/137 109/68/138 110/66/140
f 91/54/141 90/61/139 110/66/140 111/62/142
f 92/48/143 91/54/141 111/62/142 112/55/144
f 93/42/145 92/48/143 112/55/144 113/49/146
f 94/43/147 93/42/145 113/49/146 114/50/148
f 95/51/149 94/43/147 114/50/148 115/58/150
f 96/188/151 95/51/149 115/58/150 116/191/152
f 97/186/153 96/188/151 116/191/152 117/189/154
f 98/183/155 97/186/153 117/189/154 118/187/156
f 99/11/157 98/183/155 118/187/156 119/17/158
f 100/7/159 99/11/157 119/17/158 120/12/160
f 81/8/122 100/7/159 120/12/160 101/13/123
f 102/20/124 101/13/123 21/19/161 40/25/162
f 103/26/126 102/20/124 40/25/162 39/30/163
f 104/31/128 103/26/126 39/30/163 38/33/164
f 105/34/130 104/31/128 38/33/164 37/35/165
f 106/206/132 105/34/130 37/35/165 36/208/166
f 107/204/134 106/206/132 36/208/166 35/207/167
f 108/202/136 107/204/134 35/207/167 34/205/168
f 109/68/138 108/202/136 34/205/168 33/70/169
f 110/66/140 109/68/138 33/70/169 32/69/170
f 111/62/142 110/66/140 32/69/170 31/67/171
f 112/55/144 111/62/142 31/67/171 30/63/172
f 113/49/146 112/55/144 30/63/172 29/56/173
f 114/50/148 113/49/146 29/56/173 28/57/174
f 115/58/150 114/50/148 28/57/174 27/64/175
f 116/191/152 115/58/150 27/64/175 26/193/176
f 117/189/154 116/191/152 26/193/176 25/192/177
f 118/187/156 117/189/154 25/192/177 24/190/178
f 119/17/158 118/187/156 24/190/178 23/24/179
f 120/12/160 119/17/158 23/24/179 22/18/180
f 101/13/123 120/12/160 22/18/180 21/19/161
f 122/10/40 121/4/4 81/8/122 82/14/121
f 123/16/38 122/10/40 82/14/121 83/21/125
f 124/23/36 123/16/38 83/21/125 84/27/127
f 125/29/34 124/23/36 84/27/127 85/32/129
f 126/200/32 125/29/34 85/32/129 86/203/131
f 127/197/30 126/200/32 86/203/131 87/201/133
f 128/195/28 127/197/30 87/201/133 88/198/135
f 129/60/26 128/195/28 88/198/135 89/65/137
f 130/53/24 129/60/26 89/65/137 90/61/139
f 131/47/22 130/53/24 90/61/139 91/54/141
f 132/41/20 131/47/22 91/54/141 92/48/143
f 133/38/18 132/41/20 92/48/143 93/42/145
f 134/39/16 133/38/18 93/42/145 94/43/147
f 135/45/14 134/39/16 94/43/147 95/51/149
f 136/185/12 135/45/14 95/51/149 96/188/151
f 137/182/10 136/185/12 96/188/151 97/186/153
f 138/180/8 137/182/10 97/186/153 98/183/155
f 139/6/6 138/180/8 98/183/155 99/11/157
f 140/3/3 139/6/6 99/11/157 100/7/159
f 121/4/4 140/3/3 100/7/159 81/8/122
s off
f 6/139/181 5/140/182 65/141/183 66/142/184
f 5/140/185 4/143/186 64/144/187 65/141/188
f 4/143/189 3/147/190 63/148/191 64/144/192
f 3/147/193 2/151/194 62/152/195 63/148/196
f 2/151/197 1/155/198 61/156/199 62/152/200
f 1/155/201 20/159/202 80/160/203 61/156/204
f 20/159/205 19/163/206 79/164/207 80/160/208
f 19/163/209 18/167/210 78/168/211 79/164/212
f 18/167/213 17/171/214 77/172/215 78/168/216
f 17/171/217 16/175/218 76/176/219 77/172/220
f 16/175/221 15/177/222 75/178/223 76/176/224
f 15/177/225 14/173/226 74/174/227 75/178/228
f 14/173/229 13/169/230 73/170/231 74/174/232
f 13/169/233 12/165/234 72/166/235 73/170/236
f 12/165/237 11/161/238 71/162/239 72/166/240
f 11/161/241 10/157/242 70/158/243 71/162/244
f 10/157/245 9/153/246 69/154/247 70/158/248
f 9/153/249 8/149/250 68/150/251 69/154/252
f 8/149/253 7/145/254 67/146/255 68/150/256
f 7/145/257 6/139/258 66/142/259 67/146/260
