# This file uses centimeters as units for non-parametric coordinates.

mtllib start.mtl
g default
v -0.500000 0.000000 0.866025
v 0.500000 0.000000 0.866026
v 1.000000 0.000000 0.000000
v -1.000000 0.000000 -0.000000
v -0.500000 0.212955 0.866025
v -0.462614 0.277710 0.866025
v 0.500000 0.212955 0.866026
v 0.462614 0.277710 0.866026
v 1.000000 0.212955 0.000000
v 0.925228 0.277710 0.000000
v -1.000000 0.212955 -0.000000
v -0.925228 0.277710 -0.000000
v -0.000000 0.000000 0.866025
v -0.000000 0.212955 0.866025
v 0.349243 0.212955 0.866026
v 0.349243 0.000000 0.866026
v -0.349243 0.000000 0.866025
v -0.349243 0.212955 0.866025
v 0.380620 0.264983 0.866026
v 0.403158 0.277710 0.866026
v -0.403158 0.277710 0.866025
v -0.380620 0.264983 0.866025
v -0.845956 0.277710 -0.000000
v -0.783870 0.277710 -0.000000
v -0.750234 0.264983 -0.000000
v -0.728091 0.212955 -0.000000
v -0.000000 0.212955 0.000000
v 0.728091 0.212955 0.000000
v 0.750234 0.264983 0.000000
v 0.783870 0.277710 0.000000
v 0.845956 0.277710 0.000000
v 0.500000 0.000000 -0.866025
v -0.500000 0.000000 -0.866026
v 0.500000 0.212955 -0.866025
v 0.462614 0.277710 -0.866025
v -0.500000 0.212955 -0.866026
v -0.462614 0.277710 -0.866026
v 0.000000 0.000000 -0.866025
v 0.000000 0.212955 -0.866025
v -0.349243 0.212955 -0.866026
v -0.349243 0.000000 -0.866026
v 0.349243 0.000000 -0.866025
v 0.349243 0.212955 -0.866025
v -0.380620 0.264983 -0.866026
v -0.403158 0.277710 -0.866026
v 0.403158 0.277710 -0.866025
v 0.380620 0.264983 -0.866025
vt 0.086970 -0.010125
vt 0.314166 0.052779
vt 0.284617 0.086801
vt -0.074848 0.457612
vt 0.402003 0.273326
vt 0.356828 0.275257
vt -0.078981 0.473654
vt 0.136198 0.478983
vt 0.278866 0.640154
vt -0.017069 0.418435
vt -0.104864 0.197939
vt -0.059687 0.196020
vt 0.136007 0.589970
vt 0.133298 0.196411
vt 0.169667 0.571254
vt 0.210030 0.481377
vt 0.446538 0.818420
vt 0.468877 0.799953
vt 0.248532 0.527404
vt 0.228935 0.538300
vt 0.161297 0.183881
vt 0.180638 0.169514
vt 0.494296 0.782781
vt 0.516706 0.773934
vt -0.084973 0.490130
vt 0.119848 0.514123
vt 0.114442 0.525742
vt -0.092368 0.501746
vt 0.270121 0.655350
vt 0.265999 0.668488
vt 0.216690 0.545109
vt 0.195950 0.556640
vt 0.152876 0.188870
vt 0.485614 0.787302
vt 0.466359 0.001992
vt 0.566399 0.001992
vt 0.566399 0.250062
vt 0.357840 0.250062
vt 0.666438 0.001992
vt 0.774958 0.250062
vt 0.566399 0.498132
vt 0.466359 0.498132
vt 0.666438 0.498132
vt 0.123226 0.506863
vt -0.082475 0.485125
vt 0.272342 0.650215
vt 0.128947 0.494566
vt 0.115879 0.169272
vt -0.042816 0.167913
vt -0.088352 0.150792
vt -0.030332 0.071829
vt 0.003621 0.103532
vt 0.043510 0.010323
vt -0.095167 0.464840
vt 0.296034 0.646859
vt 0.339960 0.303372
vt 0.385499 0.320503
vt 0.327437 0.399516
vt 0.293525 0.367763
vt 0.253476 0.460972
vt 0.482739 0.829069
vt 0.207671 0.440010
vt 0.012496 0.384426
vt 0.089370 0.031240
vt 0.105823 0.205642
vt 0.233628 0.420110
vt 0.063429 0.051152
vt 0.145484 0.459025
vt 0.288476 0.626661
vn -0.696924 0.603553 0.387326
vn -0.696924 0.603553 0.387326
vn -0.696924 0.603553 0.387326
vn -0.696923 0.603553 0.387326
vn -0.000000 0.000000 1.000000
vn -0.000000 0.000000 1.000000
vn -0.000000 0.000000 1.000000
vn 0.696923 0.603553 0.387326
vn 0.696923 0.603553 0.387326
vn 0.696923 0.603553 0.387326
vn 0.696923 0.603553 0.387326
vn 0.000000 0.000000 1.000000
vn 0.000000 0.000000 1.000000
vn 0.000000 0.000000 1.000000
vn 0.000000 0.000000 1.000000
vn 0.866025 0.000000 0.500000
vn 0.866025 0.000000 0.500000
vn 0.866026 0.000000 0.500000
vn 0.866025 0.000000 0.500000
vn -0.866026 -0.000000 0.500000
vn -0.866025 -0.000000 0.500000
vn -0.866025 -0.000000 0.500000
vn -0.866025 -0.000000 0.500000
vn -0.000000 0.000000 1.000000
vn -0.000000 0.000000 1.000000
vn 0.000000 0.000000 1.000000
vn 0.000000 0.000000 1.000000
vn -0.000000 0.000000 1.000000
vn -0.000000 0.000000 1.000000
vn 0.000002 0.000000 1.000000
vn 0.000000 0.000000 1.000000
vn 0.000000 0.000000 1.000000
vn 0.000000 0.000000 1.000000
vn 0.000000 0.000000 1.000000
vn 0.000000 0.000000 1.000000
vn 0.000000 0.000000 1.000000
vn 0.097426 0.994347 -0.042205
vn 0.000000 1.000000 -0.000000
vn 0.000000 1.000000 -0.000000
vn 0.192827 0.977671 -0.083533
vn 0.753379 0.571278 -0.325671
vn 0.694895 0.653329 -0.300470
vn 0.830090 0.426946 -0.358703
vn 0.830090 0.426946 -0.358702
vn 0.000000 1.000000 0.000000
vn 0.000000 1.000000 0.000000
vn 0.000000 1.000000 0.000000
vn 0.000000 1.000000 0.000000
vn 0.000000 1.000000 0.000000
vn 0.000000 1.000000 0.000000
vn 0.000000 1.000000 0.000000
vn 0.000000 1.000000 0.000000
vn -0.753378 0.571279 -0.325671
vn -0.694895 0.653329 -0.300470
vn -0.830090 0.426947 -0.358702
vn -0.830090 0.426947 -0.358702
vn -0.097426 0.994348 -0.042205
vn -0.192827 0.977671 -0.083533
vn 0.000000 1.000000 0.000000
vn 0.000000 1.000000 0.000000
vn 0.000000 1.000000 0.000000
vn 0.000000 1.000000 -0.000000
vn 0.696923 0.603554 -0.387325
vn 0.696923 0.603554 -0.387325
vn 0.696923 0.603554 -0.387326
vn 0.696923 0.603554 -0.387325
vn 0.000002 0.000000 -1.000000
vn 0.000000 0.000000 -1.000000
vn 0.000000 0.000000 -1.000000
vn -0.696924 0.603553 -0.387326
vn -0.696924 0.603553 -0.387326
vn -0.696924 0.603553 -0.387326
vn -0.696924 0.603553 -0.387326
vn 0.000000 0.000000 -1.000000
vn 0.000000 0.000000 -1.000000
vn 0.000000 0.000000 -1.000000
vn 0.000000 0.000000 -1.000000
vn -0.866026 0.000000 -0.500000
vn -0.866026 0.000000 -0.500000
vn -0.866025 0.000000 -0.500000
vn -0.866026 0.000000 -0.500000
vn 0.866026 -0.000000 -0.500000
vn 0.866026 -0.000000 -0.500000
vn 0.866026 -0.000000 -0.500000
vn 0.866026 -0.000000 -0.500000
vn 0.000000 0.000000 -1.000000
vn 0.000000 0.000000 -1.000000
vn 0.000000 0.000000 -1.000000
vn 0.000000 0.000000 -1.000000
vn 0.000000 0.000000 -1.000000
vn 0.000000 0.000000 -1.000000
vn 0.000002 0.000000 -1.000000
vn 0.000000 0.000000 -1.000000
vn 0.000000 0.000000 -1.000000
vn 0.000000 0.000000 -1.000000
vn 0.000000 0.000000 -1.000000
vn 0.000000 0.000000 -1.000000
vn 0.000000 0.000000 -1.000000
vn -0.097426 0.994348 0.042205
vn 0.000000 1.000000 -0.000000
vn 0.000000 1.000000 -0.000000
vn -0.192827 0.977671 0.083533
vn -0.753379 0.571279 0.325670
vn -0.694895 0.653329 0.300470
vn -0.830090 0.426946 0.358703
vn -0.830090 0.426946 0.358703
vn 0.000000 1.000000 -0.000000
vn 0.000000 1.000000 -0.000000
vn 0.000000 1.000000 -0.000000
vn 0.000000 1.000000 -0.000000
vn 0.000000 1.000000 0.000000
vn 0.000000 1.000000 0.000000
vn 0.000000 1.000000 0.000000
vn 0.000000 1.000000 0.000000
vn 0.753378 0.571279 0.325671
vn 0.694895 0.653329 0.300470
vn 0.830090 0.426947 0.358702
vn 0.830090 0.426947 0.358702
vn 0.097426 0.994347 0.042205
vn 0.192827 0.977671 0.083533
vn 0.000000 1.000000 -0.000000
vn 0.000000 1.000000 -0.000000
vn 0.000000 1.000000 -0.000000
vn 0.000000 1.000000 -0.000000
s off
g start
usemtl lambert3SG
f 5/65/1 6/14/2 12/15/3 11/13/4
s 1
f 21/33/5 5/48/6 22/21/7
s off
f 8/7/8 7/4/9 9/68/10 10/8/11
s 2
f 1/11/12 17/50/13 18/49/14 5/12/15
s off
f 2/1/16 3/2/17 9/3/18 7/64/19
f 4/10/20 1/11/21 5/12/22 11/63/23
s 2
f 15/67/24 16/53/25 2/1/26 7/64/27
f 14/52/28 13/51/29 16/53/25 15/67/24
f 18/49/14 17/50/13 13/51/29 14/52/28
s 4
f 20/45/30 19/25/31 7/54/32
s 1
f 6/14/33 5/48/6 21/33/5
f 22/21/7 5/48/6 18/22/34
s 4
f 7/54/32 19/25/31 15/28/35
f 20/45/30 7/54/32 8/7/36
s 5
f 24/31/37 23/32/38 6/14/39 21/33/40
f 21/33/40 22/21/41 25/20/42 24/31/37
f 26/19/43 25/20/42 22/21/41 18/22/44
s off
f 18/35/45 14/36/46 27/37/47 26/38/48
f 14/36/49 15/39/50 28/40/51 27/37/52
s 6
f 19/25/53 29/26/54 28/27/55 15/28/56
f 30/44/57 29/26/54 19/25/53 20/45/58
f 31/47/59 30/44/57 20/45/58 8/7/60
f 8/7/60 10/8/61 31/47/59
s 5
f 12/15/62 6/14/39 23/32/38
s off
f 34/69/63 35/9/64 10/8/65 9/68/66
s 7
f 46/46/67 34/55/68 47/29/69
s off
f 37/18/70 36/17/71 11/13/72 12/15/73
s 8
f 32/5/74 42/57/75 43/56/76 34/6/77
s off
f 33/16/78 4/10/79 11/63/80 36/62/81
f 3/2/82 32/5/83 34/6/84 9/3/85
s 8
f 40/66/86 41/60/87 33/16/88 36/62/89
f 39/59/90 38/58/91 41/60/87 40/66/86
f 43/56/76 42/57/75 38/58/91 39/59/90
s 10
f 45/34/92 44/23/93 36/61/94
s 7
f 35/9/95 34/55/68 46/46/67
f 47/29/69 34/55/68 43/30/96
s 10
f 36/61/94 44/23/93 40/24/97
f 45/34/92 36/61/94 37/18/98
s 11
f 30/44/99 31/47/100 35/9/101 46/46/102
f 46/46/102 47/29/103 29/26/104 30/44/99
f 28/27/105 29/26/104 47/29/103 43/30/106
s off
f 43/43/107 39/41/108 27/37/109 28/40/110
f 39/41/111 40/42/112 26/38/113 27/37/114
s 12
f 44/23/115 25/20/116 26/19/117 40/24/118
f 24/31/119 25/20/116 44/23/115 45/34/120
f 23/32/121 24/31/119 45/34/120 37/18/122
f 37/18/122 12/15/123 23/32/121
s 11
f 10/8/124 35/9/101 31/47/100
