# This file uses centimeters as units for non-parametric coordinates.

mtllib y.mtl
g default
v 0.500000 -0.000000 -0.866025
v -0.500000 -0.000000 -0.866025
v -1.000000 -0.000000 -0.000000
v 1.000000 -0.000000 0.000000
v 0.500000 0.212955 -0.866025
v 0.462614 0.277710 -0.866025
v -0.500000 0.212955 -0.866025
v -0.462614 0.277710 -0.866025
v -1.000000 0.212955 -0.000000
v -0.981307 0.277710 0.032377
v 1.000000 0.212955 0.000000
v 0.981307 0.277710 0.032377
v 0.462614 0.277710 -0.337981
v -0.462614 0.277710 -0.337981
v 0.000000 -0.000000 -0.866025
v 0.000000 0.212955 -0.866025
v -0.349243 0.212955 -0.866025
v -0.349243 -0.000000 -0.866025
v 0.349244 -0.000000 -0.866025
v 0.349244 0.212955 -0.866025
v -0.349243 0.212955 -0.337981
v 0.000000 0.212955 -0.337981
v 0.349243 0.212955 -0.337981
v -0.403158 0.277710 -0.337981
v -0.380620 0.264983 -0.337981
v -0.380620 0.264983 -0.866025
v -0.403157 0.277710 -0.866025
v 0.403158 0.277710 -0.866025
v 0.380620 0.264983 -0.866025
v 0.403158 0.277710 -0.337981
v 0.380620 0.264983 -0.337981
v -0.061393 0.277710 0.569626
v -0.518693 0.277710 0.833648
v -0.292700 0.212955 0.168991
v -0.467322 0.212955 -0.133463
v -0.118078 0.212955 0.471444
v -0.924622 0.212955 0.130559
v -0.750000 0.212955 0.433013
v -0.575378 0.212955 0.735466
v -0.951579 0.277710 0.083868
v -0.940310 0.264983 0.103386
v -0.483010 0.264983 -0.160636
v -0.494279 0.277710 -0.180154
v -0.091121 0.277710 0.518135
v -0.102390 0.264983 0.498617
v -0.548421 0.277710 0.782157
v -0.559690 0.264983 0.762639
v 0.061393 0.277710 0.569626
v 0.518693 0.277710 0.833648
v 0.292700 0.212955 0.168990
v 0.118078 0.212955 0.471444
v 0.467322 0.212955 -0.133463
v 0.575828 0.212955 0.734688
v 0.750000 0.212955 0.433013
v 0.924622 0.212955 0.130559
v 0.548421 0.277710 0.782157
v 0.559690 0.264983 0.762639
v 0.102390 0.264983 0.498617
v 0.091121 0.277710 0.518135
v 0.494279 0.277710 -0.180154
v 0.483010 0.264983 -0.160636
v 0.951579 0.277710 0.083868
v 0.940310 0.264983 0.103386
v -0.500000 -0.000000 0.866025
v 0.500000 -0.000000 0.866025
v -0.500000 0.212955 0.866025
v 0.500000 0.212955 0.866025
v -0.000000 0.277710 0.801271
v -0.000000 0.212955 0.866025
v -0.000000 -0.000000 0.866025
v 0.750000 -0.000000 0.433013
v -0.750000 -0.000000 0.433013
v -0.575009 -0.000000 0.736106
v 0.576277 -0.000000 0.733910
v -0.900764 -0.000000 0.171882
v 0.896463 -0.000000 0.179331
v 0.000000 0.277710 0.569626
v 0.000000 0.277710 0.518135
v 0.000000 0.264983 0.498617
v 0.000000 0.212955 0.471444
v 0.000000 0.212955 0.168990
v 0.000000 0.212955 -0.133463
vt 0.510102 0.148378
vt 0.831989 0.230423
vt 0.467196 0.280535
vt 0.462552 0.273007
vt 0.462868 0.285309
vt 0.556184 0.245532
vt 0.487998 0.154402
vt 0.460545 0.286821
vt 0.582759 0.227809
vt 0.583492 0.250844
vt 0.618604 0.251303
vt 0.619926 0.228018
vt 0.657852 0.226677
vt 0.662406 0.249642
vt 0.684527 0.244201
vt 0.056092 0.239928
vt 0.068949 0.245335
vt 0.066457 0.246542
vt 0.060157 0.247782
vt 0.321555 0.000040
vt 0.323719 0.007834
vt 0.496055 0.082961
vt 0.500717 0.075456
vt 0.544309 0.032094
vt 0.659581 0.015576
vt 0.496395 0.070667
vt 0.685131 0.034530
vt 0.667329 0.049800
vt 0.494072 0.069143
vt 0.712714 0.066310
vt 0.693935 0.080688
vt 0.737019 0.107092
vt 0.715540 0.115093
vt 0.743334 0.129112
vt 0.723370 0.129115
vt 0.069707 0.370614
vt 0.067197 0.369450
vt 0.060998 0.368350
vt 0.544260 0.005270
vt 0.545296 0.011801
vt 0.525875 0.022348
vt 0.094829 0.935919
vt 0.601651 0.006637
vt 0.602515 0.000039
vt 0.511610 0.344190
vt 0.116235 0.847407
vt 0.094007 0.834814
vt 0.492194 0.333756
vt 0.567942 0.349556
vt 0.173356 0.846943
vt 0.512149 0.334851
vt 0.568138 0.346794
vt 0.511827 0.341339
vt 0.494535 0.332130
vt 0.065045 0.785578
vt 0.061443 0.853970
vt 0.032481 0.804733
vt 0.094418 0.885366
vt 0.061700 0.885632
vt 0.028879 0.873125
vt 0.074183 0.241343
vt 0.061957 0.917295
vt 0.028982 0.885898
vt 0.116542 0.885187
vt 0.092402 0.296910
vt 0.487998 0.066747
vt 0.033799 0.966995
vt 0.098757 0.321158
vt 0.173663 0.884723
vt 0.089819 0.298127
vt 0.000927 0.948371
vt 0.092421 0.307849
vt 0.089809 0.307867
vt 0.084034 0.301014
vt 0.891321 0.318875
vt 0.528208 0.023972
vt 0.092588 0.318809
vt 0.089989 0.317627
vt 0.084114 0.307887
vt 0.892836 0.375135
vt 0.545523 0.014653
vt 0.545848 0.021254
vt 0.917757 0.382399
vt 0.883501 0.320873
vt 0.882921 0.374872
vt 0.601853 0.009397
vt 0.880640 0.428827
vt 0.579032 0.341127
vt 0.570206 0.340715
vt 0.515146 0.133166
vt 0.490803 0.130387
vt 0.508194 0.087502
vt 0.530061 0.097001
vt 0.529597 0.048685
vt 0.612746 0.014927
vt 0.603901 0.015349
vt 0.723688 0.191221
vt 0.673400 0.224624
vt 0.703189 0.179224
vt 0.568003 0.227533
vt 0.654713 0.038367
vt 0.057071 0.376288
vt 0.547543 0.063244
vt 0.555193 0.050267
vt 0.834154 0.222630
vt 0.230034 0.061923
vt 0.224367 0.056151
vt 0.740469 0.168541
vt 0.917924 0.375800
vt 0.918107 0.369201
vt 0.084057 0.314753
vt 0.888343 0.431236
vt 0.264432 0.000040
vt 0.774866 0.230423
vt 0.734801 0.174312
vt 0.098970 0.307809
vt 0.098653 0.294421
vt 0.510530 0.350866
vt 0.487076 0.337925
vt 0.116849 0.922966
vt 0.520670 0.018044
vt 0.029086 0.898671
vt 0.454343 0.289262
vt 0.000000 0.823839
vt 0.075054 0.374575
vt 0.066670 0.985619
vt 0.568812 0.356024
vt 0.173970 0.922502
vn 0.774597 0.447213 -0.447214
vn 0.774597 0.447213 -0.447214
vn 0.774597 0.447213 -0.447214
vn 0.774597 0.447213 -0.447214
vn -0.000001 0.000000 -1.000000
vn -0.000000 0.000000 -1.000000
vn -0.000000 0.000000 -1.000000
vn -0.774597 0.447214 -0.447214
vn -0.774597 0.447214 -0.447214
vn -0.774597 0.447214 -0.447214
vn -0.774597 0.447214 -0.447214
vn 0.000000 0.000000 -1.000000
vn 0.000000 0.000000 -1.000000
vn 0.000000 0.000000 -1.000000
vn 0.000000 0.000000 -1.000000
vn -0.866025 0.000000 -0.500000
vn -0.866025 0.000000 -0.500000
vn -0.866025 0.000000 -0.500000
vn -0.866025 0.000000 -0.500000
vn 0.866026 0.000000 -0.500000
vn 0.866026 0.000000 -0.500000
vn 0.866026 0.000000 -0.500000
vn 0.866026 0.000000 -0.500000
vn 0.000000 1.000000 0.000000
vn 0.000000 1.000000 0.000000
vn 0.000000 1.000000 0.000000
vn 0.000000 1.000000 -0.000000
vn 0.000000 1.000000 -0.000000
vn 0.000000 1.000000 -0.000000
vn 0.000000 0.000000 -1.000000
vn 0.000000 0.000000 -1.000000
vn 0.000000 0.000000 -1.000000
vn 0.000000 0.000000 -1.000000
vn 0.000000 0.000000 -1.000000
vn 0.000000 0.000000 -1.000000
vn 0.000000 1.000000 -0.000000
vn 0.000000 1.000000 -0.000000
vn 0.000000 1.000000 -0.000000
vn 0.000000 1.000000 -0.000000
vn 0.000000 1.000000 -0.000000
vn 0.000000 1.000000 -0.000000
vn 0.000000 1.000000 -0.000000
vn 0.000000 1.000000 -0.000000
vn 0.000000 0.000000 -1.000000
vn 0.000000 0.000000 -1.000000
vn 0.000000 0.000000 -1.000000
vn 0.153381 0.988167 0.000000
vn 0.768502 0.639848 0.000000
vn 0.768502 0.639848 0.000000
vn 0.153381 0.988167 0.000000
vn -0.153382 0.988167 -0.000000
vn -0.768503 0.639847 -0.000000
vn -0.768503 0.639847 -0.000000
vn -0.153382 0.988167 -0.000000
vn -0.856330 0.516429 -0.000000
vn -0.856330 0.516429 -0.000000
vn 0.856329 0.516431 0.000000
vn 0.856329 0.516431 0.000000
vn 0.000000 0.000000 -1.000000
vn 0.000000 0.000000 -1.000000
vn 0.000000 0.000000 -1.000000
vn 0.000000 0.000000 -1.000000
vn 0.000000 1.000000 0.000000
vn 0.000000 1.000000 0.000000
vn 0.000000 1.000000 0.000000
vn 0.000000 1.000000 0.000000
vn 0.000000 1.000000 0.000000
vn 0.000000 1.000000 0.000000
vn 0.000000 1.000000 0.000000
vn 0.000000 1.000000 0.000000
vn 0.053314 0.994299 0.092343
vn 0.384251 0.639847 0.665542
vn 0.384251 0.639847 0.665542
vn 0.038959 0.996960 0.067478
vn -0.076691 0.988167 -0.132832
vn -0.384251 0.639847 -0.665543
vn -0.384251 0.639846 -0.665543
vn -0.076691 0.988167 -0.132833
vn 0.000000 1.000000 -0.000000
vn 0.000000 1.000000 -0.000000
vn 0.000000 1.000000 0.000000
vn 0.000000 1.000000 0.000000
vn -0.428165 0.516429 -0.741604
vn -0.428165 0.516429 -0.741604
vn 0.428164 0.516430 0.741603
vn 0.428164 0.516430 0.741603
vn 0.000000 1.000000 0.000000
vn 0.000000 1.000000 0.000000
vn 0.000000 1.000000 0.000000
vn 0.000000 1.000000 0.000000
vn 0.000000 1.000000 0.000000
vn 0.000000 1.000000 0.000000
vn 0.000000 1.000000 0.000000
vn 0.000000 1.000000 0.000000
vn 0.076691 0.988167 -0.132832
vn 0.382488 0.642980 -0.663535
vn 0.382488 0.642980 -0.663535
vn 0.076691 0.988167 -0.132832
vn -0.038959 0.996960 0.067478
vn -0.384252 0.639847 0.665543
vn -0.384252 0.639846 0.665543
vn -0.053314 0.994299 0.092343
vn 0.000000 1.000000 0.000000
vn 0.000000 1.000000 0.000000
vn 0.000000 1.000000 0.000001
vn 0.000000 1.000000 0.000001
vn -0.428165 0.516429 0.741603
vn -0.428165 0.516429 0.741603
vn 0.425898 0.521823 -0.739129
vn 0.425898 0.521823 -0.739129
vn -0.866026 0.000000 0.500000
vn -0.866026 0.000000 0.500000
vn -0.866026 -0.000000 0.500000
vn -0.866026 -0.000000 0.500000
vn 0.866025 0.000000 0.500000
vn 0.866025 0.000000 0.500000
vn 0.866025 0.000000 0.500000
vn 0.866025 0.000000 0.500000
vn 0.000000 0.000000 1.000000
vn 0.000000 0.000000 1.000000
vn 0.000000 0.000000 1.000000
vn 0.000000 0.000000 1.000000
vn -0.025362 0.602147 0.797982
vn -0.025362 0.602147 0.797982
vn -0.000000 0.602341 0.798239
vn -0.000000 0.602341 0.798239
vn 0.025362 0.602148 0.797982
vn 0.025362 0.602148 0.797982
vn 0.000000 0.000000 1.000000
vn 0.000000 0.000000 1.000000
vn 0.866026 0.000000 0.500000
vn 0.866025 0.000000 0.500000
vn 0.866026 0.000000 0.500000
vn 0.866026 0.000000 0.500000
vn -0.866026 0.000000 0.500000
vn -0.866026 0.000000 0.500000
vn -0.866026 0.000000 0.499999
vn -0.866026 0.000000 0.499999
vn -0.866025 -0.000000 0.500000
vn -0.866026 -0.000000 0.500000
vn 0.866025 0.000000 0.500000
vn 0.866025 0.000000 0.500000
vn -0.866026 0.000003 0.500000
vn -0.866026 0.000004 0.500000
vn -0.866027 0.000001 0.499998
vn -0.866026 0.000004 0.500000
vn -0.866025 0.000005 0.500001
vn 0.000000 1.000000 0.000000
vn 0.000000 1.000000 0.000000
vn 0.000000 1.000000 0.000000
vn 0.000000 1.000000 -0.000000
vn 0.000000 1.000000 -0.000000
vn 0.000000 1.000000 -0.000000
vn 0.000000 1.000000 0.000000
vn 0.000000 1.000000 0.000000
vn 0.000000 1.000000 0.000000
vn 0.000000 1.000000 0.000000
vn 0.000000 1.000000 -0.000000
vn 0.000000 1.000000 -0.000000
vn 0.000000 1.000000 -0.000000
vn 0.000000 1.000000 -0.000000
vn -0.000001 0.462941 -0.886389
vn -0.000001 0.462941 -0.886389
vn -0.000001 0.462941 -0.886389
vn -0.000001 0.462941 -0.886389
vn -0.000001 0.837655 -0.546200
vn -0.000001 0.837655 -0.546200
vn -0.000000 0.837655 -0.546200
vn -0.000000 0.837655 -0.546200
vn 0.000000 1.000000 -0.000000
vn 0.000000 1.000000 -0.000000
vn 0.000000 1.000000 -0.000000
vn 0.000000 1.000000 -0.000000
vn 0.000000 1.000000 0.000000
vn 0.000000 1.000000 0.000000
vn 0.000000 1.000000 0.000000
vn 0.000000 1.000000 0.000000
vn 0.767635 0.462942 0.443194
vn 0.767635 0.462942 0.443194
vn 0.767635 0.462942 0.443194
vn 0.767635 0.462942 0.443194
vn 0.473024 0.837655 0.273100
vn 0.473024 0.837655 0.273100
vn 0.473024 0.837655 0.273100
vn 0.473024 0.837655 0.273100
vn 0.000000 1.000000 0.000000
vn 0.000000 1.000000 0.000000
vn 0.000000 1.000000 0.000000
vn -0.473023 0.837655 0.273100
vn -0.473023 0.837655 0.273100
vn -0.473023 0.837655 0.273100
vn -0.473023 0.837655 0.273100
vn -0.767635 0.462940 0.443195
vn -0.767635 0.462940 0.443195
vn -0.767636 0.462940 0.443195
vn -0.767636 0.462940 0.443195
vn 0.000000 1.000000 0.000000
vn 0.000000 1.000000 0.000000
vn 0.000000 1.000000 0.000000
vn 0.000000 1.000000 0.000000
vn 0.000000 1.000000 0.000000
vn -0.000000 0.837655 -0.546200
vn -0.000000 0.837655 -0.546200
vn -0.000001 0.462942 -0.886389
vn -0.000001 0.462941 -0.886389
vn 0.000000 1.000000 -0.000000
vn 0.000000 1.000000 -0.000000
vn 0.000000 1.000000 0.000000
vn 0.000000 1.000000 0.000000
vn 0.000000 1.000000 0.000000
vn 0.000000 1.000000 0.000000
vn 0.000000 1.000000 0.000000
vn 0.000000 1.000000 0.000000
vn 0.000000 1.000000 0.000000
vn 0.000000 1.000000 0.000000
vn 0.000000 1.000000 0.000000
vn 0.000000 1.000000 0.000000
vn 0.866025 0.000001 0.500000
vn 0.866025 0.000002 0.500000
vn 0.866025 0.000000 0.500000
vn 0.866026 0.000000 0.499999
vn 0.866026 0.000001 0.500000
vn 0.866025 0.000001 0.500000
vn 0.866025 0.000003 0.500000
vn 0.866026 0.000003 0.500000
vn 0.866025 0.000005 0.500001
vn 0.866025 0.000003 0.500001
vn -0.866025 0.000000 0.500000
vn -0.866025 0.000000 0.500000
vn -0.866025 0.000001 0.500000
vn -0.866026 0.000001 0.500000
vn -0.866025 0.000002 0.500000
s off
g y tracks og
usemtl lambert3SG
f 5/105/1 6/2/2 12/115/3 11/108/4
s 1
f 28/52/5 5/88/6 29/49/7
s off
f 8/20/8 7/21/9 9/106/10 10/107/11
s 2
f 1/7/12 19/91/13 20/90/14 5/1/15
s off
f 2/24/16 3/25/17 9/101/18 7/104/19
f 4/6/20 1/7/21 5/1/22 11/100/23
s 3
f 12/115/24 6/2/25 13/114/26
s 4
f 8/20/27 10/107/28 14/113/29
s 2
f 17/103/30 18/94/31 2/24/32 7/104/33
f 16/93/34 15/92/35 18/94/31 17/103/30
f 20/90/14 19/91/13 15/92/35 16/93/34
s off
f 20/50/36 16/69/37 22/64/38 23/46/39
f 16/69/40 17/128/41 21/120/42 22/64/43
s 6
f 27/86/44 26/43/45 7/95/46
s 4
f 24/81/47 25/40/48 26/43/49 27/86/50
s 3
f 28/52/51 29/49/52 31/45/53 30/53/54
f 13/51/26 6/89/25 28/52/51 30/53/54
s 4
f 24/81/47 27/86/50 8/96/27 14/82/29
s 3
f 31/45/53 29/49/52 20/127/55 23/118/56
s 4
f 26/43/49 25/40/48 21/39/57 17/44/58
s 1
f 6/89/59 5/88/6 28/52/5
f 29/49/7 5/88/6 20/127/60
s 6
f 7/95/46 26/43/45 17/44/61
f 27/86/44 7/95/46 8/96/62
s off
f 36/122/63 34/62/64 38/67/65 39/71/66
f 34/62/67 35/42/68 37/126/69 38/67/70
s 9
f 40/26/71 41/29/72 42/41/73 43/76/74
s 10
f 44/78/75 45/77/76 47/36/77 46/37/78
f 33/38/79 32/111/80 44/78/75 46/37/78
s 9
f 40/26/71 43/76/74 14/82/81 10/23/82
s 10
f 47/36/77 45/77/76 36/68/83 39/125/84
s 9
f 42/41/73 41/29/72 37/66/85 35/121/86
s off
f 52/47/87 50/56/88 54/57/89 55/55/90
f 50/56/91 51/60/92 53/124/93 54/57/94
s 11
f 56/18/95 57/17/96 58/65/97 59/70/98
s 12
f 60/54/99 61/48/100 63/8/101 62/5/102
f 12/3/103 13/51/104 60/54/99 62/5/102
s 11
f 56/18/95 59/70/98 48/74/105 49/19/106
s 12
f 63/8/101 61/48/100 52/119/107 55/123/108
s 11
f 58/65/97 57/17/96 53/61/109 51/117/110
s 13
f 9/101/111 3/25/112 75/27/113 37/28/114
s 14
f 65/15/115 74/14/116 53/13/117 67/98/118
s 15
f 70/97/119 65/15/120 67/98/121 69/99/122
s 16
f 67/84/123 49/75/124 68/80/125 69/85/126
f 69/85/126 68/80/125 33/112/127 66/87/128
s 15
f 64/34/129 70/97/119 69/99/122 66/35/130
s 14
f 55/9/131 76/10/132 4/6/133 11/100/134
s 13
f 39/33/135 73/32/136 64/34/137 66/35/138
f 38/31/139 72/30/140 73/32/136 39/33/135
f 37/28/114 75/27/113 72/30/140 38/31/139
s 14
f 53/13/117 74/14/116 71/11/141 54/12/142
f 71/11/141 76/10/132 55/9/131 54/12/142
s 19
f 47/36/143 66/102/144 46/37/145
f 39/125/146 66/102/144 47/36/143
f 46/37/145 66/102/144 33/38/147
s off
f 32/83/148 33/112/149 68/80/150
f 49/75/151 48/110/152 68/80/153
s 20
f 44/78/154 32/111/155 77/79/156 78/73/157
s off
f 68/80/158 48/110/159 77/109/160 32/83/161
s 21
f 36/68/162 45/77/163 79/72/164 80/116/165
s 22
f 45/77/166 44/78/167 78/73/168 79/72/169
s 23
f 34/62/170 36/122/171 80/63/172 81/59/173
s 24
f 35/42/174 34/62/175 81/59/176 82/58/177
s off
f 21/39/178 25/40/179 42/41/180 35/121/181
f 25/40/182 24/81/183 43/76/184 42/41/185
f 24/81/186 14/82/187 43/76/188
f 30/53/189 31/45/190 61/48/191 60/54/192
f 31/45/193 23/118/194 52/119/195 61/48/196
f 30/53/197 60/54/198 13/51/199
s 20
f 78/73/157 77/79/156 48/74/200 59/70/201
s 22
f 79/72/169 78/73/168 59/70/202 58/65/203
s 21
f 80/116/165 79/72/164 58/65/204 51/117/205
s 23
f 81/59/173 80/63/172 51/60/206 50/56/207
s 24
f 82/58/177 81/59/176 50/56/208 52/47/209
s off
f 23/46/210 22/64/211 82/58/212 52/47/213
f 22/64/214 21/120/215 35/42/216 82/58/217
s 25
f 62/5/218 11/4/219 12/3/220
s 26
f 53/61/221 57/17/222 67/16/223
s 25
f 55/123/224 11/4/219 63/8/225
f 63/8/225 11/4/219 62/5/218
s 26
f 67/16/223 56/18/226 49/19/227
f 67/16/223 57/17/222 56/18/226
s 27
f 37/66/228 41/29/229 9/22/230
f 9/22/230 40/26/231 10/23/232
f 9/22/230 41/29/229 40/26/231
